<svg id="Calque_1" data-name="Calque 1" xmlns="http://www.w3.org/2000/svg" viewBox="0 0 48 48"><defs><style>.cls-1{fill:#5b6870;}</style></defs><title>pict-group</title><path class="cls-1" d="M14,17.44a4.45,4.45,0,0,0,4.28-4.28,4.28,4.28,0,0,0-8.56,0A4.46,4.46,0,0,0,14,17.44ZM11.83,11A3.08,3.08,0,0,1,14,10.08,3.12,3.12,0,0,1,16.1,11,3.08,3.08,0,0,1,17,13.16,3.25,3.25,0,0,1,14,16.24a3.24,3.24,0,0,1-3.07-3.08A3,3,0,0,1,11.83,11Z"/><path class="cls-1" d="M34.56,17.44a4.45,4.45,0,0,0,4.28-4.28,4.28,4.28,0,0,0-8.56,0A4.45,4.45,0,0,0,34.56,17.44ZM32.42,11a2.91,2.91,0,0,1,4.28,0,3.08,3.08,0,0,1,.94,2.14,3.08,3.08,0,1,1-6.16,0A3.08,3.08,0,0,1,32.42,11Z"/><path class="cls-1" d="M38.31,18.49H31.18a4.05,4.05,0,0,0-1.69.42,4,4,0,0,0-1.75-.42H19.65a4,4,0,0,0-2,.58,4.36,4.36,0,0,0-2.17-.58H12.49a4.08,4.08,0,0,0-4,2.84c-.9,3-3,13.2-3,14a4,4,0,0,0,4.13,3.79h8.6a4.33,4.33,0,0,0,2.07-.53,4,4,0,0,0,2,.53h2.77a3.89,3.89,0,0,0,3.64-2.43c1,1.91,3.55,2.43,4.81,2.43H36c1,0,3.91,0,5-2.54,1.32-3.18,1.53-14.13,1.53-14.23C42.47,20.21,40.2,18.49,38.31,18.49Zm-7.85,3.79c0,.49-.88,5.18-1.69,9.1-.46-3.81-.62-8.36-.62-9a2.72,2.72,0,0,1,1.32-2.07A2.52,2.52,0,0,1,30.46,22.28ZM20.36,37.13A2.84,2.84,0,0,1,19.67,36c-.88-3.16-2.71-13.06-2.74-13.67a2.49,2.49,0,0,1,.7-1.71,2.85,2.85,0,0,1,.65,1.1c.94,3.14,2.88,13,2.91,13.66A2.39,2.39,0,0,1,20.36,37.13Zm-10.7.79a2.78,2.78,0,0,1-2.93-2.58c0-.6,2-10.46,2.92-13.67a2.85,2.85,0,0,1,2.84-2h2.94a3.22,3.22,0,0,1,1.18.23,3.67,3.67,0,0,0-.88,2.36c0,.66,1.91,10.89,2.79,14a4,4,0,0,0,.79,1.47,3.26,3.26,0,0,1-1,.18Zm18.06-2a2.68,2.68,0,0,1-2.64,2H22.31a2.71,2.71,0,0,1-.91-.15,3.57,3.57,0,0,0,1-2.44c0-.8-2.06-11-3-14a3.81,3.81,0,0,0-.82-1.44,3,3,0,0,1,1-.2h8.09a2.63,2.63,0,0,1,.49,0A3.64,3.64,0,0,0,27,22.37,88,88,0,0,0,28.06,34.6C27.93,35.13,27.82,35.59,27.72,36Zm12.11.17c-.51,1.23-1.74,1.8-3.86,1.8H33.53c-1.14,0-3.17-.5-3.78-1.82a8.21,8.21,0,0,1-.46-1.5c.94-4,2.37-11.63,2.37-12.32a3.67,3.67,0,0,0-1-2.52,2.67,2.67,0,0,1,.54-.07h7.13a3.1,3.1,0,0,1,3,2.66C41.27,23.4,41,33.4,39.83,36.12Z"/><path class="cls-1" d="M24.26,17.44a4.45,4.45,0,0,0,4.28-4.28,4.43,4.43,0,0,0-4.28-4.28A4.45,4.45,0,0,0,20,13.16,4.45,4.45,0,0,0,24.26,17.44ZM22.12,11a2.91,2.91,0,0,1,4.28,0,3.08,3.08,0,0,1,.94,2.14,3.25,3.25,0,0,1-3.08,3.08,3.25,3.25,0,0,1-3.08-3.08A3.12,3.12,0,0,1,22.12,11Z"/></svg>