<svg id="Calque_1" data-name="Calque 1" xmlns="http://www.w3.org/2000/svg" viewBox="0 0 48 48"><defs><style>.cls-1{fill:#5b6870;}</style></defs><title>pict-human</title><path class="cls-1" d="M24,16.76a4.89,4.89,0,0,0,4.7-4.7,4.7,4.7,0,0,0-9.4,0A4.89,4.89,0,0,0,24,16.76ZM21.57,9.63a3.5,3.5,0,0,1,5.93,2.43,3.64,3.64,0,0,1-3.5,3.5,3.64,3.64,0,0,1-3.5-3.5A3.51,3.51,0,0,1,21.57,9.63Z"/><path class="cls-1" d="M28.51,17.8h-9A4.22,4.22,0,0,0,15.2,22c0,.73,2.13,12.11,3.1,15.57a4.28,4.28,0,0,0,4.16,3.12h3.08a4.27,4.27,0,0,0,4.16-3.12c.94-3.34,3.1-14.68,3.1-15.57A4.22,4.22,0,0,0,28.51,17.8Zm0,19.39a3,3,0,0,1-3,2.25H22.46a3,3,0,0,1-3-2.25c-1-3.56-3-14.57-3.06-15.24A3,3,0,0,1,19.49,19h9A3,3,0,0,1,31.6,22C31.58,22.75,29.5,33.79,28.54,37.19Z"/></svg>