<svg id="Calque_1" data-name="Calque 1" xmlns="http://www.w3.org/2000/svg" viewBox="0 0 48 48"><defs><style>.cls-1{fill:#5b6870;}</style></defs><title>pict-woman</title><path class="cls-1" d="M24,16.76a4.89,4.89,0,0,0,4.7-4.7,4.7,4.7,0,0,0-9.4,0A4.89,4.89,0,0,0,24,16.76ZM21.57,9.63a3.5,3.5,0,0,1,5.93,2.43,3.64,3.64,0,0,1-3.5,3.5,3.64,3.64,0,0,1-3.5-3.5A3.51,3.51,0,0,1,21.57,9.63Z"/><path class="cls-1" d="M29.7,20.92a4.27,4.27,0,0,0-4.16-3.12H22.46a4.26,4.26,0,0,0-4.16,3.12c-.94,3.34-3.1,14.68-3.1,15.57a4.22,4.22,0,0,0,4.29,4.15h9a4.22,4.22,0,0,0,4.29-4.15C32.8,35.76,30.67,24.38,29.7,20.92ZM28.51,39.44h-9a3,3,0,0,1-3.09-2.95c0-.8,2.1-11.84,3.06-15.25a3,3,0,0,1,3-2.24h3.08a3,3,0,0,1,3,2.24c1,3.56,3,14.58,3.06,15.25A3,3,0,0,1,28.51,39.44Z"/></svg>