<svg id="Calque_1" data-name="Calque 1" xmlns="http://www.w3.org/2000/svg" xmlns:xlink="http://www.w3.org/1999/xlink" viewBox="0 0 48 48"><defs><style>.cls-1{fill:none;clip-rule:evenodd;}.cls-2{clip-path:url(#clip-path);}.cls-3{fill:#5b6870;}</style><clipPath id="clip-path"><path class="cls-1" d="M115.5-302.68c4.7,0,8.52-3.06,8.52-7.69s-7.74-15.38-8.52-15.38S107-315,107-310.37,110.79-302.68,115.5-302.68Z"/></clipPath></defs><title>img-tourisme</title><path class="cls-3" d="M5.4,17.81v3c.12,5.25,4,9.37,8.9,9.37s8.78-4.12,8.9-9.38V19h1.6v1.81c.12,5.25,4,9.37,8.9,9.37s8.78-4.12,8.9-9.37v-3Zm16.6,3c-.11,4.6-3.49,8.2-7.7,8.2s-7.59-3.6-7.7-8.2V19H22Zm19.4,0c-.11,4.6-3.49,8.2-7.7,8.2s-7.59-3.6-7.7-8.2V19H41.4Z"/><path class="cls-3" d="M11.66,27.55a.59.59,0,0,0,.41.16.6.6,0,0,0,.44-.2l6-6.59a.59.59,0,0,0,0-.85.61.61,0,0,0-.85,0l-6,6.6A.6.6,0,0,0,11.66,27.55Z"/><path class="cls-3" d="M10.54,24.76a.62.62,0,0,0,.45-.2l4-4.38a.61.61,0,0,0,0-.85.6.6,0,0,0-.85.05l-4,4.38a.58.58,0,0,0,0,.84A.57.57,0,0,0,10.54,24.76Z"/><path class="cls-3" d="M31.4,27.55a.57.57,0,0,0,.4.16.61.61,0,0,0,.45-.2l6-6.59a.6.6,0,1,0-.89-.81l-6,6.6A.59.59,0,0,0,31.4,27.55Z"/><path class="cls-3" d="M30.28,24.76a.6.6,0,0,0,.44-.2l4-4.38a.59.59,0,1,0-.88-.8l-4,4.38a.6.6,0,0,0,0,.84A.59.59,0,0,0,30.28,24.76Z"/></svg>