<svg id="Calque_1" data-name="Calque 1" xmlns="http://www.w3.org/2000/svg" xmlns:xlink="http://www.w3.org/1999/xlink" viewBox="0 0 48 48"><defs><style>.cls-1{fill:none;clip-rule:evenodd;}.cls-2{clip-path:url(#clip-path);}.cls-3{fill:#5b6870;}</style><clipPath id="clip-path"><path class="cls-1" d="M115.5-235.28c4.7,0,8.52-3.06,8.52-7.69s-7.74-15.38-8.52-15.38S107-247.6,107-243,110.79-235.28,115.5-235.28Z"/></clipPath></defs><title>img-urbanisme</title><path class="cls-3" d="M42.35,27.12l-10.11-7a.62.62,0,0,0-.69,0l-4.74,3.3V19a.62.62,0,0,0-.14-.39L16.56,7a.63.63,0,0,0-.91,0L5.54,18.61a.58.58,0,0,0-.15.39V37.33c0,2.2,1.25,3.93,2.85,3.93H39.76a2.74,2.74,0,0,0,2.85-2.61v-11A.59.59,0,0,0,42.35,27.12ZM6.59,37.33V19.23l9.51-11,9.51,11v5l-4.17,2.9a.58.58,0,0,0-.25.49v11a2.49,2.49,0,0,0,.45,1.41H8.24C7.35,40.06,6.59,38.81,6.59,37.33ZM24,40.06a1.53,1.53,0,0,1-1.6-1.41V27.92l3.22-2.24V37.33C25.61,38.8,24.87,40,24,40.06Zm17.42-1.41a1.54,1.54,0,0,1-1.65,1.41H26a4.86,4.86,0,0,0,.78-2.73V24.85l5.09-3.53,9.51,6.6Z"/></svg>