<svg id="Calque_1" data-name="Calque 1" xmlns="http://www.w3.org/2000/svg" viewBox="0 0 48 48"><defs><style>.cls-1{fill:#5b6870;}</style></defs><title>img-sante-pop</title><path class="cls-1" d="M21.07,28H9.36a6.59,6.59,0,0,0-6.46,6.7v3a.6.6,0,0,0,1.2,0v-3a5.39,5.39,0,0,1,5.26-5.5H21.07a5.39,5.39,0,0,1,5.26,5.5v3a.6.6,0,0,0,1.2,0v-3A6.59,6.59,0,0,0,21.07,28Z"/><path class="cls-1" d="M15.21,23.08a6.59,6.59,0,0,0,6.46-6.7,6.59,6.59,0,0,0-6.46-6.7,6.58,6.58,0,0,0-6.45,6.7A6.59,6.59,0,0,0,15.21,23.08Zm0-12.2a5.39,5.39,0,0,1,5.26,5.5,5.39,5.39,0,0,1-5.26,5.5A5.39,5.39,0,0,1,10,16.38,5.39,5.39,0,0,1,15.21,10.88Z"/><path class="cls-1" d="M40.26,28.19a.6.6,0,0,0-.73.43.59.59,0,0,0,.42.73,5.46,5.46,0,0,1,3.95,5.32v3a.6.6,0,0,0,1.2,0v-3A6.66,6.66,0,0,0,40.26,28.19Z"/><path class="cls-1" d="M34.4,9.9a.59.59,0,0,0-.73.42.61.61,0,0,0,.43.74,5.44,5.44,0,0,1,3.95,5.32,5.45,5.45,0,0,1-3.95,5.33.61.61,0,0,0-.43.74.59.59,0,0,0,.58.44.39.39,0,0,0,.15,0,6.65,6.65,0,0,0,4.85-6.49A6.65,6.65,0,0,0,34.4,9.9Z"/><path class="cls-1" d="M31.48,28.19a.6.6,0,1,0-.31,1.16,5.45,5.45,0,0,1,3.94,5.32v3a.6.6,0,0,0,.6.6.6.6,0,0,0,.6-.6v-3A6.66,6.66,0,0,0,31.48,28.19Z"/><path class="cls-1" d="M25.62,9.9a.6.6,0,0,0-.74.42.62.62,0,0,0,.43.74,5.56,5.56,0,0,1,0,10.65.62.62,0,0,0-.43.74.61.61,0,0,0,.58.44.44.44,0,0,0,.16,0,6.76,6.76,0,0,0,0-13Z"/></svg>