<svg id="Calque_1" data-name="Calque 1" xmlns="http://www.w3.org/2000/svg" xmlns:xlink="http://www.w3.org/1999/xlink" viewBox="0 0 48 48"><defs><style>.cls-1{fill:none;clip-rule:evenodd;}.cls-2{clip-path:url(#clip-path);}.cls-3{fill:#5b6870;}</style><clipPath id="clip-path"><path class="cls-1" d="M115.5,35.31c4.7,0,8.52-3.06,8.52-7.69s-7.74-15.38-8.52-15.38S107,23,107,27.62,110.79,35.31,115.5,35.31Z"/></clipPath></defs><title>img-eau</title><path class="cls-3" d="M24,7C22.26,7,11.28,22.77,11.28,29.47S16.63,41,24,41s12.72-4.85,12.72-11.53S25.74,7,24,7Zm0,32.8c-6.68,0-11.52-4.35-11.52-10.33S22.16,9.77,24,8.28c1.84,1.49,11.52,15.13,11.52,21.19S30.68,39.8,24,39.8Z"/><path class="cls-3" d="M31.39,28.08a.6.6,0,0,0-.6.61,6.46,6.46,0,0,1-6.49,6.42.6.6,0,0,0,0,1.2A7.67,7.67,0,0,0,32,28.69.6.6,0,0,0,31.39,28.08Z"/></svg>