<?xml version="1.0" encoding="UTF-8" standalone="no"?>
<!DOCTYPE svg PUBLIC "-//W3C//DTD SVG 1.1//EN" "http://www.w3.org/Graphics/SVG/1.1/DTD/svg11.dtd">
<svg width="100%" height="100%" viewBox="0 0 1152 96" version="1.1" xmlns="http://www.w3.org/2000/svg" xmlns:xlink="http://www.w3.org/1999/xlink" xml:space="preserve" xmlns:serif="http://www.serif.com/" style="fill-rule:evenodd;clip-rule:evenodd;stroke-linejoin:round;stroke-miterlimit:2;">
    <g transform="matrix(1,0,0,1,-3.36068,-58.4546)">
        <g transform="matrix(1.34144,0,0,1.34144,2.7645,-468.001)">
            <g transform="matrix(1,0,0,1,-1.03407,166.05)">
                <path d="M542.671,275.846C542.614,276.903 542.506,279.552 542.708,281.872C542.805,282.98 542.969,284.012 543.253,284.741C543.396,285.109 543.549,285.396 543.779,285.511C544.989,286.116 546.993,286.368 549.087,286.46C553.106,286.636 557.453,286.183 557.464,286.182C565.563,285.527 573.147,283.279 580.433,280.194C591.394,275.551 601.683,269.014 612.028,263.117C616.891,260.346 621.627,256.705 626.733,254.099C628.978,252.953 631.293,252.007 633.719,251.414C637.287,250.542 640.25,251.095 642.868,252.502C647.726,255.114 651.374,260.746 655.528,265.596C659.481,270.21 663.904,274.113 670.455,273.676C674.416,273.412 677.858,271.908 680.932,269.746C685.588,266.471 689.403,261.695 692.885,257.361C694.755,255.033 697.107,251.887 699.94,250.076C701.96,248.785 704.218,248.16 706.717,248.888C711.616,250.317 714.191,254.447 716.271,259.098C718.211,263.434 719.719,268.221 722.484,271.478C724.754,274.152 727.894,275.751 732.877,275.142C740.312,274.234 746.363,270.614 751.655,265.803C759.618,258.565 765.871,248.643 772.47,241.039C775.873,237.116 779.699,233.047 784.175,230.201C787.206,228.274 790.533,226.906 794.226,226.508C798.638,226.033 802.592,227.332 806.027,229.633C811.07,233.011 814.989,238.562 817.583,243.75C822.687,253.957 828.482,266.582 837.486,275.51C843.228,281.203 850.28,285.386 859.307,286.44C859.578,286.472 859.773,286.718 859.741,286.989C859.71,287.26 859.464,287.455 859.192,287.423C849.926,286.342 842.683,282.057 836.789,276.213C827.707,267.209 821.844,254.488 816.697,244.193C814.175,239.149 810.378,233.74 805.475,230.456C802.231,228.283 798.5,227.045 794.333,227.494C790.795,227.875 787.61,229.192 784.707,231.037C780.311,233.832 776.561,237.837 773.219,241.689C766.596,249.321 760.314,259.273 752.323,266.537C746.879,271.486 740.646,275.193 732.997,276.128C727.589,276.789 724.191,275.023 721.727,272.12C718.907,268.798 717.343,263.927 715.365,259.503C713.408,255.129 711.047,251.186 706.439,249.842C704.239,249.2 702.254,249.776 700.476,250.913C697.732,252.667 695.47,255.729 693.659,257.983C690.121,262.388 686.235,267.231 681.504,270.559C678.283,272.824 674.672,274.391 670.521,274.668C663.628,275.127 658.933,271.098 654.773,266.243C650.701,261.49 647.158,255.938 642.397,253.379C639.981,252.08 637.247,251.576 633.956,252.38C631.604,252.955 629.361,253.875 627.186,254.985C622.093,257.584 617.371,261.218 612.521,263.982C602.142,269.898 591.818,276.453 580.821,281.111C573.438,284.238 565.752,286.511 557.556,287.174C557.556,287.174 553.133,287.634 549.043,287.456C546.789,287.357 544.636,287.054 543.333,286.403C543.001,286.236 542.706,285.912 542.475,285.445C542.184,284.858 541.977,284.024 541.842,283.075C541.383,279.867 541.705,275.304 541.705,275.304C541.724,275.038 541.948,274.834 542.214,274.841C542.214,274.841 544.787,274.908 546.176,274.798C545.259,274.136 543.592,273.275 543.431,273.184C541.533,272.103 539.969,271.223 538.383,270.208C537.35,269.547 536.308,268.83 535.159,267.964C534.709,267.625 533.868,266.926 532.983,266.176C531.898,265.256 530.745,264.259 530.173,263.762C529.665,264.312 528.632,265.419 527.522,266.544C526.821,267.255 526.09,267.974 525.441,268.565C525.271,268.719 525.099,268.741 524.948,268.715C524.831,268.694 524.708,268.637 524.602,268.512C524.534,268.431 524.457,268.287 524.404,268.081C524.239,267.434 524.201,265.811 524.193,264.956C523.912,264.978 523.555,265.003 523.2,265.02C522.809,265.038 522.422,265.046 522.138,265.031C521.916,265.019 521.582,265.038 521.24,265.066C520.877,265.096 520.505,265.138 520.234,265.17C520.199,265.904 520.125,267.465 520.075,268.721C520.044,269.48 520.022,270.126 520.022,270.405C520.022,270.727 519.895,271.016 519.669,271.273C519.407,271.571 518.989,271.828 518.565,272.066C518.228,272.256 517.885,272.428 517.692,272.634C517.512,272.826 517.088,273.122 516.571,273.447C515.897,273.872 515.053,274.366 514.504,274.765C515.688,274.852 517.765,274.691 517.765,274.691C517.903,274.681 518.039,274.728 518.14,274.821C518.242,274.915 518.3,275.046 518.301,275.184L518.353,283.561C518.353,283.852 518.342,284.239 518.328,284.626C518.299,285.413 518.255,286.205 518.255,286.205C518.241,286.458 518.039,286.66 517.786,286.675L517.654,286.683C517.648,286.683 517.642,286.684 517.636,286.684L508.813,286.879C508.39,286.898 507.957,286.881 507.521,286.847C506.577,286.774 505.611,286.616 504.68,286.585L503.17,286.636C502.911,286.648 502.686,286.46 502.652,286.203C502.652,286.203 502.568,285.566 502.609,284.943C502.632,284.601 502.695,284.264 502.81,284.012C502.928,283.753 503.129,283.532 503.378,283.364C503.698,283.148 504.098,283.019 504.461,282.991C504.879,282.958 505.297,282.973 505.714,283.011C506.606,283.094 507.498,283.294 508.394,283.322C508.865,283.336 509.395,283.46 509.88,283.461C510.028,283.461 510.171,283.451 510.301,283.407C510.257,283.356 510.208,283.302 510.165,283.26C509.986,283.086 509.797,282.913 509.679,282.767C509.594,282.662 509.501,282.564 509.404,282.47C509.14,282.214 508.851,281.98 508.598,281.714L504.615,277.454C504.506,277.34 503.471,276.461 502.994,275.844C502.827,275.628 502.721,275.426 502.683,275.277C502.646,275.13 502.655,275.001 502.689,274.894C502.78,274.606 502.975,274.455 503.24,274.402C503.379,274.374 503.552,274.381 503.738,274.422C503.953,274.47 504.199,274.57 504.378,274.602C504.571,274.637 505.826,274.995 506.941,275.218C507.292,275.288 507.628,275.345 507.906,275.37C507.768,275.218 507.63,275.069 507.544,274.942C507.475,274.84 507.399,274.744 507.319,274.65C507.101,274.393 506.863,274.151 506.66,273.881C505.996,272.997 505.181,271.857 504.394,270.571C503.715,269.46 503.057,268.241 502.535,266.986C502.437,266.749 502.484,266.582 502.533,266.48C502.603,266.334 502.722,266.227 502.907,266.185C503.012,266.161 503.218,266.172 503.46,266.274C503.734,266.389 504.142,266.632 504.367,266.708C504.655,266.806 504.948,266.892 505.243,266.97C505.541,267.048 505.841,267.117 506.142,267.179C506.371,267.227 506.699,267.312 507.003,267.35C507.054,267.357 507.117,267.359 507.176,267.36C507.11,267.245 507.022,267.122 506.926,266.998C506.575,266.545 506.118,266.085 505.979,265.91C505.192,264.922 504.254,263.62 503.284,262.426C502.818,261.852 502.344,261.303 501.877,260.83C501.739,260.993 501.597,261.16 501.515,261.259C501.313,261.502 501.053,261.788 500.78,262.079C500.39,262.493 499.972,262.918 499.658,263.24C498.963,263.953 498.382,264.561 497.766,265.18C497.36,265.587 496.939,265.999 496.463,266.448C496.376,266.53 496.277,266.605 496.174,266.677C496.839,266.541 498.139,266.281 498.998,266.185C499.404,266.139 499.729,266.136 499.895,266.172C500.017,266.198 500.106,266.245 500.167,266.291C500.45,266.505 500.513,266.773 500.428,267.077C500.388,267.221 500.295,267.384 500.165,267.546C500.007,267.744 499.781,267.951 499.665,268.119C499.576,268.247 499.479,268.369 499.378,268.487C499.172,268.726 498.944,268.949 498.745,269.194C497.915,270.21 497.083,271.225 496.258,272.246C495.71,272.925 495.166,273.607 494.629,274.295C494.392,274.599 494.116,274.887 493.889,275.2C493.855,275.246 493.823,275.293 493.792,275.34C494.478,275.396 495.632,275.322 496.373,275.241C496.521,275.225 496.827,275.217 497.181,275.216C497.949,275.214 498.959,275.238 498.959,275.238C499.153,275.243 499.326,275.359 499.404,275.536C499.482,275.713 499.451,275.92 499.324,276.066C499.324,276.066 498.623,276.873 497.997,277.617C497.644,278.036 497.316,278.435 497.157,278.652C496.478,279.58 495.992,280.245 495.513,280.889C495.015,281.559 494.524,282.206 493.833,283.104C493.543,283.48 493.198,283.954 492.86,284.427C492.543,284.871 492.233,285.314 491.984,285.673C492.553,285.67 493.303,285.667 494.033,285.668C494.805,285.668 495.555,285.672 496.048,285.684C496.572,285.696 497.107,285.697 497.579,285.692C498.451,285.682 499.112,285.656 499.112,285.656C499.388,285.645 499.621,285.86 499.632,286.136C499.643,286.411 499.428,286.644 499.152,286.655C499.152,286.655 498.478,286.682 497.589,286.692C497.106,286.697 496.56,286.696 496.024,286.684C495.537,286.672 494.796,286.668 494.033,286.667C492.572,286.666 491.032,286.678 491.032,286.678C490.846,286.68 490.675,286.578 490.587,286.414C490.5,286.25 490.51,286.051 490.615,285.897C490.615,285.897 491.311,284.876 492.046,283.846C492.28,283.518 492.519,283.189 492.74,282.892C492.289,282.576 491.619,282.095 490.943,281.6C490.13,281.006 489.309,280.392 488.847,280.019C488.56,279.787 487.414,278.732 486.968,278.274C486.848,278.15 486.769,278.055 486.74,278.011C486.534,277.693 486.715,277.456 486.785,277.38C486.869,277.289 487.005,277.19 487.232,277.224C487.8,277.309 488.349,277.4 488.857,277.489C489.262,277.56 489.641,277.63 489.984,277.695L489.941,277.616C489.63,277.046 489.313,276.434 489.141,276.088C489.134,276.08 489.128,276.071 489.122,276.062C488.96,275.82 488.805,275.573 488.654,275.325C488.308,274.758 487.982,274.179 487.639,273.611L486.916,272.41L486.512,271.586C486.424,271.383 486.205,270.987 486.177,270.788C486.152,270.608 486.198,270.467 486.262,270.368C486.362,270.215 486.526,270.078 486.833,270.121C487.1,270.159 487.513,270.274 487.968,270.423C488.224,270.506 488.494,270.601 488.758,270.696C488.656,270.55 488.557,270.406 488.462,270.263C487.847,269.345 487.357,268.486 486.683,267.436C486.586,267.286 486.315,266.591 486.048,266.146C486.025,266.181 486.004,266.216 485.986,266.247C485.821,266.542 485.675,266.835 485.634,266.888C485.351,267.249 485.058,267.602 484.759,267.949C484.461,268.294 484.157,268.634 483.85,268.971C483.348,269.521 482.848,270.074 482.332,270.612C482.014,270.945 481.69,271.271 481.356,271.588C482.11,271.558 482.932,271.466 483.307,271.412C483.434,271.394 483.637,271.315 483.81,271.269C483.959,271.23 484.095,271.209 484.195,271.211C484.38,271.215 484.515,271.284 484.605,271.366C484.737,271.486 484.843,271.666 484.767,271.956C484.704,272.198 484.571,272.414 484.394,272.607C484.12,272.906 483.713,273.137 483.483,273.39L480.245,277.128C480.096,277.294 479.864,277.486 479.632,277.695L482.602,277.37C482.91,277.331 483.501,277.179 483.782,277.226C483.98,277.26 484.118,277.353 484.205,277.464C484.311,277.597 484.379,277.778 484.307,278.032C484.216,278.357 484,278.66 483.721,278.921C483.377,279.243 482.939,279.502 482.636,279.676C482.081,279.996 481.56,280.369 481.055,280.766C480.275,281.378 479.532,282.046 478.765,282.672C478.664,282.755 478.411,282.965 478.172,283.197C478.256,283.186 478.334,283.177 478.4,283.176C479.162,283.159 479.924,283.15 480.686,283.146C481.827,283.14 482.968,283.144 484.108,283.149C484.381,283.15 484.602,283.371 484.602,283.643L484.605,286.179C484.606,286.436 484.41,286.65 484.155,286.673C483.727,286.712 483.299,286.751 482.87,286.776C482.578,286.793 482.285,286.803 481.993,286.803L477.328,286.799C477.229,286.843 477.119,286.853 477.017,286.83L477.003,286.829C476.877,286.82 476.614,286.81 476.256,286.798L474.665,286.796C474.587,286.796 474.514,286.778 474.448,286.746C471.866,286.679 468.326,286.607 468.289,286.609L466.638,286.577C466.373,286.57 466.161,286.357 466.155,286.093L466.129,284.719C466.129,284.272 466.117,283.529 466.195,282.914C466.238,282.569 466.313,282.261 466.419,282.039C466.444,281.987 466.514,281.884 466.644,281.77C466.884,281.559 467.45,281.153 467.769,280.908C468.21,280.57 468.588,280.222 468.91,279.84C469.236,279.451 469.505,279.027 469.725,278.541C470.411,277.026 470.761,275.242 470.702,273.475C470.644,271.736 470.191,270.013 469.26,268.584C468.753,267.806 468.254,267.123 467.591,266.664C466.997,266.252 466.268,266.033 465.284,266.083C464.641,266.115 464.08,266.331 463.58,266.644C462.742,267.169 462.072,267.961 461.485,268.683C460.245,270.207 459.73,272.148 459.782,274.096C459.834,276.062 460.462,278.038 461.524,279.62C461.704,279.888 461.873,280.126 462.07,280.343C462.251,280.542 462.456,280.722 462.716,280.891C463.1,281.14 463.626,281.308 463.938,281.475C464.207,281.618 464.367,281.796 464.429,281.948C464.538,282.216 464.602,282.638 464.625,283.092C464.655,283.658 464.631,284.277 464.613,284.641L464.631,286.068C464.636,286.343 464.418,286.571 464.142,286.577L462.482,286.611L458.687,286.585C458.602,286.584 458.523,286.562 458.453,286.524L447.307,286.202L443.964,286.164C443.813,286.161 443.614,286.229 443.44,286.253C443.269,286.277 443.111,286.272 442.982,286.237C442.757,286.175 442.586,286.038 442.494,285.795C442.423,285.608 442.406,285.419 442.428,285.228C442.454,285.013 442.535,284.793 442.632,284.572C442.72,284.374 442.834,284.177 442.848,283.974C442.873,283.589 442.742,283.465 442.639,283.289C442.55,283.139 442.469,282.97 442.418,282.731C442.391,282.602 442.373,282.451 442.371,282.268C442.369,282.098 442.438,281.918 442.602,281.763C442.717,281.654 442.997,281.501 443.115,281.439C443.374,280.989 443.577,280.587 443.709,280.172C443.847,279.739 443.906,279.291 443.874,278.753C443.873,278.735 443.85,278.553 443.802,278.301C443.794,278.421 443.784,278.541 443.771,278.66C443.748,278.871 443.717,279.081 443.673,279.288C443.48,280.201 443.139,280.879 442.627,281.385C442.121,281.886 441.441,282.223 440.536,282.425C440.262,282.486 439.236,282.601 438.449,282.577C437.962,282.562 437.555,282.471 437.365,282.344C437.181,282.222 437.065,282.049 437,281.839C436.936,281.634 436.955,281.368 436.888,281.163C436.8,280.895 436.676,280.637 436.585,280.371C436.538,280.231 436.498,280.089 436.472,279.944C436.447,279.805 436.439,279.665 436.44,279.524L436.441,279.448C436.157,279.906 435.903,280.345 435.876,280.374C435.48,280.799 434.942,281.092 434.497,281.464L434.474,281.484C434.624,281.51 434.818,281.494 435.022,281.488C435.318,281.48 435.627,281.479 435.896,281.534C436.27,281.609 436.575,281.785 436.765,282.098C436.879,282.286 436.945,282.526 436.97,282.791C437.01,283.203 436.943,283.689 436.957,283.99L436.985,286.001C436.986,286.136 436.932,286.266 436.835,286.36C436.739,286.455 436.608,286.507 436.473,286.504L432.251,286.387L427.707,286.227C427.694,286.226 427.681,286.225 427.668,286.224C427.402,286.232 426.446,286.257 425.684,286.254C425.287,286.252 424.94,286.241 424.753,286.219C424.264,286.159 423.166,286.224 422.29,286.169C421.774,286.137 421.325,286.055 421.055,285.92C420.859,285.822 420.706,285.617 420.681,285.302C420.657,284.984 420.808,284.448 420.837,284.227C420.857,284.077 420.793,283.434 420.842,283.162C420.875,282.98 420.954,282.859 421.02,282.792C421.032,282.781 421.217,282.612 421.528,282.664C421.627,282.681 421.901,282.717 422.009,282.731C422.052,282.699 422.082,282.651 422.111,282.599C422.175,282.483 422.217,282.342 422.247,282.197C422.325,281.823 422.325,281.416 422.319,281.163C422.303,280.503 422.066,279.716 421.724,278.973C421.38,278.223 420.929,277.517 420.468,277.031C420.367,276.925 420.197,276.841 420.026,276.748C419.794,276.622 419.555,276.494 419.374,276.353C419.209,276.225 419.084,276.082 419.009,275.931C418.924,275.761 418.908,275.562 418.987,275.338C419.057,275.136 419.251,274.877 419.422,274.588C419.533,274.402 419.663,274.195 419.551,273.971C419.46,273.788 419.256,273.681 419.045,273.609C418.785,273.521 418.5,273.494 418.288,273.535C418.137,273.564 418.057,273.712 417.995,273.861C417.905,274.079 417.873,274.333 417.901,274.527C417.91,274.588 417.933,274.637 417.962,274.68C418.05,274.81 418.174,274.907 418.281,275.017C418.402,275.142 418.509,275.276 418.588,275.433C418.783,275.823 418.881,276.343 418.916,276.894C418.961,277.6 418.908,278.361 418.895,278.901C418.89,279.123 418.906,279.361 418.934,279.607C419.053,280.657 419.37,281.839 419.375,282.713C419.38,282.736 419.419,282.902 419.458,283.033C419.605,283.52 419.866,284.269 420.005,284.793C420.111,285.194 420.118,285.513 420.077,285.637C420.045,285.733 419.975,285.858 419.806,285.946C419.727,285.986 419.55,286.037 419.296,286.066C418.49,286.157 416.593,286.164 415.809,286.164L414.307,286.284C414.173,286.294 414.04,286.25 413.939,286.161C413.838,286.072 413.778,285.946 413.772,285.812C413.772,285.812 413.701,283.805 413.701,283.805C413.707,283.7 413.788,283.43 414.144,283.297C414.353,283.219 414.839,283.111 415.166,282.824C415.294,282.713 415.39,282.565 415.383,282.359C415.366,281.867 415.231,281.369 415.046,280.869C414.586,279.623 413.829,278.369 413.517,277.181C413.484,277.056 413.195,276.344 413.117,276.031C413.073,275.853 413.084,275.719 413.099,275.657C413.172,275.366 413.337,275.018 413.486,274.66C413.594,274.4 413.699,274.134 413.702,273.886C413.704,273.668 413.574,273.497 413.257,273.368C412.917,273.229 412.63,273.211 412.401,273.337C412.156,273.472 411.995,273.748 411.888,274.103C411.832,274.289 411.794,274.498 411.809,274.699C411.818,274.829 411.848,274.957 411.922,275.065C412.004,275.078 412.207,275.111 412.3,275.132C412.539,275.186 412.688,275.317 412.757,275.439C412.839,275.582 412.879,275.762 412.765,275.991C412.697,276.127 412.601,276.255 412.485,276.377C412.332,276.537 412.139,276.689 411.955,276.848C411.827,276.958 411.701,277.069 411.624,277.206C411.375,277.647 411.199,278.114 411.055,278.594C410.826,279.361 410.677,280.156 410.475,280.926C410.408,281.181 410.31,281.523 410.253,281.852C410.225,282.009 410.205,282.163 410.209,282.297C410.275,282.346 410.499,282.509 410.661,282.592C411.05,282.792 411.49,282.952 411.623,282.993C411.759,283.034 411.89,283.119 412.002,283.258C412.147,283.44 412.27,283.761 412.332,284.126C412.403,284.545 412.404,285.02 412.34,285.331C412.298,285.537 412.221,285.692 412.142,285.787C412.089,285.85 411.913,285.981 411.609,286.018C411.063,286.084 409.702,286.056 409.54,286.05L406.395,285.932C406.124,285.922 405.911,285.696 405.916,285.425C405.918,285.327 405.948,285.235 405.999,285.159C406.01,285.139 406.031,285.095 406.051,285.054C406.191,284.763 406.468,284.145 406.604,283.799C406.178,283.082 405.641,281.52 405.6,280.594C405.564,279.778 405.959,279.371 406.461,279.414C406.789,279.441 407.126,279.505 407.42,279.509C407.468,279.51 407.516,279.512 407.561,279.511C407.239,279.375 406.774,279.268 406.389,279.123C405.924,278.949 405.558,278.71 405.406,278.444C405.196,278.076 405.19,277.686 405.282,277.295C405.331,277.084 405.409,276.873 405.478,276.669C405.527,276.522 405.577,276.383 405.572,276.252C405.57,276.191 405.532,276.144 405.461,276.098C405.349,276.025 405.193,275.967 404.984,275.914C404.783,275.863 404.535,275.997 404.354,276.162C404.223,276.282 404.087,276.43 404.185,276.581C404.263,276.7 404.717,277.126 404.919,277.436C405.087,277.691 405.117,277.934 405.082,278.083C405.012,278.38 404.865,278.598 404.668,278.772C404.377,279.03 403.934,279.16 403.515,279.383C403.48,279.402 403.441,279.421 403.398,279.44C403.463,279.425 403.523,279.413 403.576,279.404C403.754,279.375 403.894,279.381 403.979,279.401C404.16,279.444 404.269,279.546 404.334,279.656C404.509,279.947 404.591,280.314 404.607,280.709C404.624,281.125 404.57,281.576 404.526,281.972C404.497,282.236 404.465,282.468 404.492,282.626C404.513,282.754 404.53,283.115 404.54,283.547C404.559,284.398 404.558,285.544 404.558,285.544C404.558,285.807 404.354,286.025 404.091,286.041C404.091,286.041 401.497,286.206 400.008,286.159C399.527,286.144 399.147,286.098 398.961,286.035C398.828,285.989 398.739,285.925 398.682,285.868C398.62,285.806 398.552,285.709 398.527,285.559C398.512,285.464 398.52,285.271 398.572,285.013C398.689,284.434 399.007,283.354 399.183,282.495C399.261,282.109 399.325,281.779 399.286,281.601C398.973,280.161 398.707,279.45 398.489,278.529C398.353,277.958 398.235,277.31 398.135,276.374C398.098,276.032 397.957,275.485 397.928,275.018C397.909,274.719 397.936,274.446 398.016,274.236C398.061,274.121 398.218,273.901 398.572,273.879C398.862,273.861 399.575,273.972 399.762,273.965C399.94,273.959 400.08,273.885 400.194,273.775C400.345,273.63 400.456,273.432 400.55,273.225C400.711,272.867 400.656,272.521 400.452,272.291C400.244,272.056 399.896,271.953 399.516,272.056C399.111,272.165 398.827,272.411 398.625,272.676C398.339,273.051 398.211,273.468 398.154,273.667C398.112,273.816 398.073,273.905 398.061,273.925C397.285,275.218 396.798,276.643 396.556,278.136C396.319,279.6 396.316,281.129 396.509,282.668L397.04,285.326C397.071,285.473 397.035,285.626 396.941,285.742C396.847,285.859 396.705,285.928 396.555,285.929L390.971,285.975C390.901,285.976 390.834,285.962 390.773,285.936C389.449,285.791 382.903,285.08 376.929,284.538C373.002,284.182 369.324,283.898 367.554,283.898C363.792,283.898 360.49,284.062 357.384,284.304C349.593,284.912 343.033,286.009 333.6,286.258C332.21,286.295 330.82,286.378 329.43,286.406C328.489,286.424 327.548,286.417 326.608,286.355C325.938,286.31 325.009,286.268 324.068,286.231C322.178,286.158 320.241,286.107 320.241,286.107C320.155,286.105 320.075,286.081 320.006,286.042L319.971,286.079C319.783,286.281 319.466,286.291 319.265,286.103C319.063,285.915 319.052,285.598 319.24,285.396C319.24,285.396 319.704,284.9 320.066,284.542C320.261,284.349 320.434,284.195 320.515,284.143C320.843,283.93 321.131,283.66 321.371,283.353C321.613,283.043 321.806,282.694 321.943,282.324C322.223,281.569 322.276,280.769 322.221,279.949C322.086,277.946 321.327,275.831 321.25,273.906C321.218,273.111 321.241,272.198 321.059,271.361C320.95,270.862 320.767,270.39 320.43,270.005C320.219,269.764 319.883,269.604 319.49,269.492C318.937,269.334 318.273,269.281 317.61,269.309C316.428,269.359 315.234,269.651 314.701,270.147C314.5,270.335 314.35,270.598 314.221,270.881C313.999,271.37 313.849,271.92 313.703,272.357C313.564,272.775 313.177,273.982 312.72,274.79C312.541,275.106 312.346,275.366 312.156,275.528C311.967,275.688 311.771,275.77 311.583,275.784C311.067,275.824 309.32,276.07 308.249,276.054C307.917,276.05 307.639,276.017 307.455,275.96C307.314,275.917 307.207,275.855 307.131,275.79C307.017,275.692 306.919,275.533 306.884,275.306C306.84,275.019 306.911,274.523 306.967,274.078C306.978,273.991 306.992,273.907 307.002,273.831C306.889,273.852 306.784,273.851 306.695,273.833C306.525,273.797 306.387,273.708 306.29,273.546C306.274,273.519 306.259,273.489 306.246,273.455C306.169,273.576 306.096,273.729 306.052,273.964C305.955,274.479 306.13,275.075 306.09,275.612C306.075,275.801 306.04,275.985 305.977,276.161C305.904,276.361 305.748,276.517 305.491,276.594C305.242,276.669 304.8,276.638 304.372,276.625C304.233,276.62 304.097,276.619 303.977,276.637C303.94,276.642 303.884,276.659 303.863,276.666C303.727,276.863 303.687,277.154 303.672,277.459C303.645,278.018 303.738,278.629 303.819,279.016C303.836,279.038 303.906,279.126 303.948,279.174C304.061,279.304 304.156,279.438 304.203,279.567C304.271,279.753 304.27,279.941 304.174,280.133C304.109,280.263 304.011,280.378 303.881,280.477C303.675,280.635 303.354,280.751 303.028,280.889C302.781,280.993 302.505,281.097 302.42,281.378C302.336,281.652 301.95,282.265 301.745,282.931C301.657,283.217 301.601,283.514 301.664,283.786C301.727,284.057 301.902,284.298 302.089,284.507C302.361,284.812 302.672,285.052 302.848,285.205C303.021,285.356 303.11,285.494 303.136,285.564C303.204,285.747 303.168,285.896 303.096,286.015C303.067,286.064 302.957,286.232 302.674,286.268C302.569,286.281 302.346,286.291 302.042,286.294C300.6,286.311 297.158,286.22 296.415,286.2L296.394,286.202C296.289,286.208 296.068,286.213 295.765,286.217C294.303,286.235 290.874,286.225 289.681,286.192C287.816,286.14 285.926,286.117 284.015,286.113C281.219,286.106 278.379,286.139 275.505,286.181C275.435,286.182 275.369,286.168 275.308,286.143C274.524,286.117 273.163,286.077 272.05,286.07C271.324,286.065 270.708,286.071 270.45,286.11C269.761,286.212 268.608,286.447 267.266,286.857C266.308,287.15 265.254,287.532 264.203,288.02C260.638,289.676 256.951,291.264 253.197,292.662C249.431,294.063 245.599,295.274 241.757,296.168C236.559,297.378 230.956,297.773 225.403,297.377C219.862,296.981 214.373,295.796 209.387,293.848C204.584,291.97 200.113,289.891 195.414,288.325C192.344,287.301 189.176,286.497 185.753,286.117C185.478,286.086 185.281,285.839 185.311,285.565C185.342,285.29 185.589,285.092 185.863,285.123C186.172,285.157 186.478,285.195 186.783,285.236C186.818,285.177 186.867,285.124 186.927,285.083C195.983,278.879 206.865,274.302 217.314,271.109C225.285,268.672 233.003,267.041 239.463,266.104C232.055,259.689 214.962,250.83 198.491,245.589C186.713,241.841 175.255,239.927 167.912,242.154C166.488,242.586 165.084,243.143 163.746,243.828C162.413,244.51 161.146,245.319 159.99,246.257C155.482,249.915 152.793,254.931 148.797,258.419C146.174,260.71 143.005,262.363 138.459,262.612C137.055,262.689 135.773,262.207 134.577,261.294C133.23,260.266 131.988,258.677 130.793,256.758C127.291,251.132 124.165,242.594 119.514,237.589C117.649,235.583 115.539,234.153 113.038,233.771C107.504,232.927 102.316,236.956 97.826,242.417C90.841,250.912 85.595,262.939 83.596,266.589C82.18,269.176 80.249,271.806 78.015,274.189C75.823,276.528 73.339,278.629 70.764,280.224C68.557,281.59 64.282,283.537 59.443,285.035C55.512,286.251 51.21,287.171 47.343,287.253C45.011,287.302 28.177,287.359 15.62,287.484C8.945,287.55 3.481,287.635 2.065,287.749C1.793,287.771 1.554,287.568 1.532,287.296C1.51,287.024 1.713,286.785 1.985,286.763C3.409,286.648 8.901,286.561 15.61,286.494C28.163,286.368 44.99,286.311 47.322,286.262C51.102,286.182 55.307,285.277 59.15,284.087C63.89,282.62 68.08,280.719 70.242,279.38C72.746,277.83 75.159,275.785 77.291,273.511C79.466,271.19 81.346,268.631 82.725,266.112C84.737,262.438 90.027,250.337 97.058,241.785C101.797,236.021 107.346,231.897 113.188,232.788C115.907,233.203 118.216,234.731 120.242,236.912C124.933,241.959 128.106,250.558 131.638,256.232C132.76,258.035 133.916,259.536 135.181,260.502C136.176,261.262 137.236,261.681 138.405,261.617C142.686,261.383 145.671,259.826 148.142,257.669C152.147,254.172 154.845,249.149 159.362,245.483C160.571,244.501 161.897,243.654 163.292,242.94C164.682,242.229 166.142,241.649 167.623,241.2C175.106,238.93 186.79,240.818 198.794,244.637C215.902,250.08 233.663,259.413 240.762,265.922C244.445,265.427 247.671,265.168 250.241,265.122C253.235,265.068 256.709,265.313 260.146,265.824C263.575,266.333 266.969,267.108 269.818,268.111C272.158,268.936 274.49,270.181 276.735,271.642C280.033,273.789 283.142,276.401 285.809,278.81L289.786,282.518C289.87,282.593 291.672,284.36 292.429,285.008C292.499,285.067 292.585,285.135 292.621,285.162C292.664,285.18 292.704,285.204 292.74,285.232C293.886,285.237 295.049,285.235 295.753,285.227C295.924,285.225 296.067,285.222 296.175,285.22C296.215,285.21 296.257,285.206 296.3,285.207L296.366,285.209C296.419,285.202 296.472,285.203 296.522,285.213C297.3,285.234 299.938,285.302 301.493,285.306C301.15,284.95 300.814,284.504 300.699,284.01C300.598,283.575 300.657,283.097 300.798,282.639C301.003,281.975 301.388,281.362 301.471,281.089C301.578,280.739 301.791,280.484 302.059,280.29C302.35,280.079 302.716,279.949 303.024,279.819C303.067,279.802 303.107,279.784 303.146,279.765C303.117,279.731 303.089,279.697 303.068,279.67C302.961,279.535 302.884,279.391 302.853,279.245C302.758,278.798 302.649,278.073 302.681,277.411C302.707,276.876 302.834,276.382 303.084,276.049C303.23,275.854 303.463,275.722 303.762,275.667C304.064,275.61 304.453,275.635 304.8,275.651C304.891,275.655 305.004,275.653 305.087,275.65C305.102,275.558 305.106,275.462 305.105,275.365C305.1,274.838 304.983,274.275 305.076,273.781C305.17,273.279 305.339,273.009 305.502,272.785C305.584,272.672 305.673,272.586 305.715,272.44C305.744,272.335 305.747,272.202 305.724,272.013C305.705,271.851 305.675,271.02 305.819,270.61C305.958,270.215 306.241,270.061 306.534,270.09C306.949,270.131 307.222,270.416 307.307,270.915C307.387,271.378 307.275,272.107 307.207,272.665C307.202,272.701 307.198,272.739 307.195,272.777C307.219,272.774 307.241,272.773 307.26,272.773C307.554,272.771 307.805,272.879 307.936,273.247C307.996,273.413 308.008,273.69 307.976,274.009C307.946,274.304 307.899,274.805 307.878,275.034C307.909,275.039 307.942,275.044 307.971,275.046C308.256,275.072 308.64,275.061 309.049,275.035C309.992,274.974 311.062,274.829 311.476,274.794C311.502,274.77 311.622,274.658 311.689,274.564C311.853,274.331 312.008,274.02 312.15,273.696C312.436,273.041 312.661,272.335 312.759,272.042C312.914,271.577 313.077,270.991 313.314,270.469C313.5,270.06 313.731,269.69 314.022,269.419C314.675,268.809 316.117,268.375 317.568,268.313C319.051,268.25 320.517,268.59 321.181,269.348C321.63,269.862 321.889,270.483 322.034,271.148C322.228,272.042 322.213,273.017 322.247,273.866C322.324,275.783 323.083,277.888 323.218,279.882C323.283,280.845 323.209,281.784 322.88,282.671C322.707,283.138 322.464,283.577 322.159,283.968C321.851,284.362 321.481,284.707 321.06,284.981C321.025,285.004 320.967,285.056 320.896,285.125C321.622,285.146 322.875,285.184 324.107,285.233C325.058,285.27 325.997,285.313 326.675,285.358C327.586,285.419 328.498,285.425 329.41,285.407C330.798,285.38 332.186,285.297 333.573,285.26C342.987,285.013 349.532,283.918 357.307,283.313C360.436,283.069 363.764,282.904 367.554,282.905C368.981,282.905 371.634,283.086 374.664,283.343C381.56,283.928 390.414,284.9 391.082,284.974L395.937,284.934C395.858,284.556 395.756,284.06 395.673,283.639C395.594,283.245 395.532,282.914 395.517,282.792C395.313,281.157 395.317,279.531 395.57,277.976C395.829,276.377 396.35,274.852 397.174,273.464C397.181,273.437 397.192,273.399 397.202,273.363C397.298,273.034 397.534,272.351 398.054,271.809C398.355,271.496 398.747,271.229 399.256,271.092C400.049,270.877 400.763,271.138 401.198,271.627C401.639,272.124 401.808,272.865 401.46,273.636C401.278,274.04 401.033,274.405 400.708,274.646C400.455,274.833 400.156,274.951 399.796,274.963C399.678,274.967 399.222,274.929 398.918,274.901C398.922,274.972 398.93,275.046 398.939,275.121C398.987,275.534 399.096,275.976 399.127,276.268C399.221,277.15 399.332,277.761 399.46,278.299C399.679,279.225 399.946,279.94 400.261,281.389C400.334,281.725 400.225,282.455 400.041,283.232C399.875,283.928 399.664,284.672 399.566,285.135L399.567,285.135C400.036,285.179 400.781,285.176 401.526,285.158C402.304,285.138 403.083,285.1 403.56,285.074C403.559,284.666 403.554,284.067 403.543,283.569C403.535,283.204 403.526,282.898 403.508,282.79C403.478,282.606 403.485,282.354 403.514,282.065C403.552,281.671 403.629,281.189 403.611,280.75C403.607,280.635 403.597,280.523 403.574,280.42C403.28,280.485 402.872,280.607 402.525,280.666C402.203,280.722 401.917,280.72 401.733,280.66C401.55,280.601 401.421,280.494 401.338,280.359C401.234,280.189 401.17,279.921 401.355,279.537C401.453,279.335 401.661,279.139 401.944,278.983C402.297,278.789 402.787,278.642 403.047,278.504C403.355,278.34 403.683,278.245 403.931,278.084C403.982,278.051 404.029,278.013 404.064,277.964C403.987,277.863 403.844,277.679 403.741,277.567C403.558,277.37 403.396,277.195 403.349,277.122C403.035,276.636 403.126,276.102 403.462,275.665C403.871,275.134 404.658,274.805 405.228,274.948C405.889,275.115 406.223,275.379 406.393,275.645C406.64,276.03 406.587,276.494 406.422,276.986C406.367,277.151 406.302,277.32 406.259,277.491C406.22,277.646 406.187,277.804 406.271,277.95C406.303,278.006 406.381,278.033 406.464,278.075C406.654,278.169 406.891,278.248 407.129,278.324C407.459,278.43 407.792,278.531 408.045,278.644C408.262,278.74 408.431,278.852 408.538,278.968C408.754,279.199 408.814,279.46 408.697,279.757C408.546,280.14 408.282,280.343 407.948,280.441C407.59,280.545 407.105,280.48 406.617,280.429C406.631,280.666 406.67,281.153 406.765,281.517C406.966,282.281 407.287,283.105 407.534,283.403C407.566,283.443 407.708,283.65 407.603,283.968C407.55,284.127 407.411,284.459 407.265,284.789L407.187,284.966L409.578,285.056C409.718,285.061 410.818,285.088 411.376,285.042C411.383,284.992 411.389,284.939 411.391,284.893C411.403,284.587 411.268,284.042 411.235,283.912C410.904,283.797 410.095,283.476 409.665,283.144C409.39,282.931 409.249,282.683 409.226,282.48C409.201,282.249 409.223,281.969 409.273,281.68C409.336,281.322 409.44,280.95 409.514,280.673C409.719,279.892 409.87,279.086 410.103,278.308C410.268,277.758 410.473,277.222 410.759,276.717C410.831,276.59 410.922,276.471 411.027,276.359C411.16,276.217 411.316,276.086 411.468,275.958C411.368,275.911 411.286,275.851 411.224,275.782C411.015,275.548 410.895,275.271 410.843,274.976C410.775,274.593 410.828,274.179 410.936,273.818C411.129,273.174 411.476,272.712 411.921,272.467C412.378,272.215 412.954,272.17 413.633,272.448C414.468,272.79 414.702,273.325 414.695,273.898C414.69,274.263 414.562,274.659 414.404,275.041C414.289,275.316 414.158,275.581 414.087,275.813C414.172,276.134 414.446,276.808 414.477,276.929C414.782,278.087 415.528,279.308 415.978,280.525C416.2,281.128 416.355,281.731 416.375,282.324C416.394,282.873 416.158,283.275 415.821,283.571C415.479,283.87 415.017,284.042 414.703,284.152L414.744,285.253L415.749,285.173C415.762,285.172 415.775,285.172 415.789,285.172C416.498,285.172 418.212,285.169 419.057,285.093C418.91,284.513 418.588,283.616 418.458,283.142C418.406,282.953 418.383,282.808 418.383,282.732C418.383,281.887 418.064,280.739 417.948,279.719C417.915,279.426 417.897,279.143 417.903,278.877C417.916,278.36 417.969,277.633 417.927,276.957C417.901,276.551 417.845,276.164 417.701,275.876C417.643,275.76 417.54,275.679 417.448,275.588C417.337,275.479 417.231,275.367 417.143,275.238C417.034,275.078 416.952,274.894 416.919,274.667C416.86,274.251 416.946,273.682 417.191,273.255C417.396,272.896 417.707,272.636 418.103,272.561C418.523,272.481 419.115,272.541 419.602,272.766C419.967,272.934 420.271,273.194 420.438,273.528C420.604,273.861 420.614,274.186 420.536,274.495C420.456,274.81 420.273,275.107 420.103,275.364C420.061,275.428 420.01,275.511 419.974,275.572C420.013,275.602 420.061,275.628 420.109,275.658C420.333,275.798 420.603,275.925 420.821,276.062C420.966,276.153 421.092,276.249 421.187,276.349C421.712,276.904 422.233,277.705 422.625,278.56C423.026,279.434 423.291,280.363 423.309,281.14C423.319,281.578 423.298,282.383 423.047,282.94C422.886,283.297 422.637,283.564 422.302,283.688C422.238,283.711 422.117,283.733 421.963,283.724C421.921,283.722 421.874,283.717 421.824,283.711C421.828,283.968 421.83,284.278 421.819,284.358C421.801,284.489 421.729,284.894 421.691,285.101C421.87,285.145 422.101,285.165 422.352,285.181C423.249,285.238 424.372,285.175 424.872,285.236C425.08,285.261 425.513,285.266 425.975,285.264C426.661,285.261 427.41,285.241 427.639,285.235C427.672,285.229 427.707,285.226 427.742,285.227L432.288,285.389L435.979,285.491L435.96,284.039C435.948,283.781 435.997,283.387 435.985,283.022C435.98,282.869 435.975,282.72 435.911,282.615C435.841,282.498 435.689,282.503 435.54,282.49C435.047,282.449 434.476,282.527 434.137,282.429C434.023,282.397 433.839,282.357 433.694,282.304C433.559,282.254 433.447,282.187 433.373,282.12C433.26,282.017 433.2,281.897 433.178,281.775C433.155,281.645 433.169,281.499 433.268,281.346C433.428,281.098 433.631,280.889 433.857,280.699C434.271,280.353 434.778,280.09 435.146,279.695C435.186,279.652 435.734,278.668 436.114,278.136C436.267,277.92 436.41,277.764 436.5,277.698C436.581,277.639 436.657,277.609 436.718,277.594C436.906,277.548 437.053,277.589 437.169,277.66C437.277,277.725 437.37,277.828 437.424,277.98C437.456,278.07 437.474,278.194 437.472,278.332C437.471,278.463 437.447,278.62 437.454,278.719C437.473,278.988 437.437,279.26 437.436,279.529C437.435,279.61 437.439,279.689 437.453,279.768C437.47,279.864 437.497,279.957 437.528,280.049C437.621,280.32 437.746,280.582 437.835,280.854C437.876,280.981 437.897,281.124 437.912,281.269C437.919,281.343 437.939,281.462 437.949,281.52C437.992,281.531 438.058,281.547 438.11,281.554C438.359,281.588 438.684,281.59 439.009,281.578C439.573,281.558 440.136,281.494 440.319,281.453C441.011,281.299 441.54,281.06 441.927,280.677C442.315,280.295 442.554,279.772 442.7,279.082C442.737,278.907 442.763,278.731 442.782,278.553C442.812,278.273 442.826,277.991 442.839,277.71C442.845,277.56 442.767,277.372 442.719,277.193C442.652,276.949 442.618,276.717 442.645,276.538C442.688,276.257 442.833,276.046 443.133,275.935C443.518,275.793 443.886,275.927 444.171,276.333C444.634,276.99 444.863,278.634 444.866,278.695C444.906,279.37 444.829,279.931 444.655,280.474C444.494,280.981 444.245,281.473 443.919,282.032C443.886,282.09 443.823,282.169 443.716,282.239C443.653,282.281 443.483,282.376 443.376,282.435C443.403,282.634 443.47,282.747 443.536,282.854C443.622,282.993 443.703,283.128 443.761,283.305C443.821,283.487 443.86,283.715 443.838,284.039C443.825,284.243 443.764,284.448 443.682,284.65C443.601,284.848 443.494,285.044 443.437,285.238C443.612,285.207 443.853,285.17 443.983,285.172L447.308,285.21L458.907,285.547C458.972,285.549 459.033,285.563 459.089,285.588L462.482,285.611L463.626,285.588L463.615,284.59C463.632,284.251 463.656,283.672 463.628,283.144C463.613,282.858 463.589,282.589 463.53,282.397C463.381,282.335 462.586,281.996 462.174,281.729C461.834,281.509 461.567,281.274 461.331,281.014C461.102,280.762 460.904,280.487 460.696,280.176C459.532,278.442 458.842,276.277 458.785,274.122C458.727,271.936 459.321,269.764 460.712,268.054C461.364,267.253 462.12,266.384 463.052,265.8C463.691,265.4 464.411,265.131 465.233,265.089C466.483,265.026 467.404,265.323 468.158,265.846C468.92,266.375 469.511,267.147 470.093,268.042C471.121,269.62 471.632,271.521 471.695,273.442C471.759,275.363 471.376,277.303 470.629,278.951C470.37,279.523 470.053,280.022 469.669,280.478C469.303,280.913 468.875,281.31 468.373,281.695C468.069,281.928 467.528,282.314 467.3,282.514L467.29,282.523C467.214,282.715 467.179,282.983 467.155,283.266C467.11,283.787 467.12,284.357 467.12,284.719L467.137,285.596L468.252,285.618C468.299,285.617 474.017,285.732 476.258,285.807L476.272,285.808L481.994,285.812C482.267,285.813 482.54,285.803 482.813,285.787C483.08,285.771 483.347,285.75 483.614,285.727L483.612,284.138C482.638,284.135 481.665,284.132 480.692,284.138C479.935,284.142 479.178,284.151 478.422,284.167C478.251,284.171 477.99,284.238 477.769,284.264C477.584,284.286 477.417,284.281 477.292,284.251C477.122,284.209 476.997,284.122 476.912,284.011C476.821,283.895 476.762,283.743 476.782,283.538C476.801,283.354 476.938,283.08 477.17,282.811C477.489,282.442 477.978,282.034 478.138,281.904C478.909,281.274 479.657,280.601 480.442,279.985C480.984,279.559 481.544,279.16 482.14,278.816C482.348,278.697 482.634,278.532 482.889,278.328C482.829,278.34 482.773,278.349 482.725,278.355L479.608,278.697C479.493,278.713 479.32,278.781 479.159,278.832C478.967,278.892 478.784,278.934 478.659,278.936C478.469,278.938 478.329,278.874 478.235,278.795C478.093,278.676 477.976,278.491 478.055,278.184C478.119,277.939 478.265,277.693 478.463,277.46C478.785,277.083 479.26,276.737 479.506,276.463L482.747,272.721C482.831,272.629 482.937,272.539 483.052,272.448C482.601,272.501 481.967,272.561 481.376,272.583C480.758,272.607 480.184,272.583 479.869,272.491C479.591,272.409 479.506,272.22 479.497,272.02C479.493,271.93 479.518,271.731 479.721,271.552C479.898,271.395 480.445,271.079 480.582,270.951C480.935,270.619 481.277,270.274 481.613,269.924C482.123,269.391 482.618,268.844 483.115,268.299C483.415,267.97 483.713,267.637 484.004,267.299C484.294,266.963 484.577,266.622 484.85,266.273C484.911,266.197 485.198,265.556 485.449,265.257C485.7,264.958 485.999,264.897 486.194,264.948C486.354,264.991 486.576,265.15 486.767,265.432C487.073,265.884 487.411,266.726 487.521,266.898C488.192,267.941 488.679,268.796 489.29,269.709C489.654,270.252 490.063,270.816 490.584,271.455C490.725,271.629 490.733,271.875 490.604,272.058C490.474,272.241 490.239,272.315 490.028,272.239C489.806,272.159 488.871,271.786 487.994,271.484C487.821,271.424 487.651,271.367 487.489,271.316L487.788,271.924L488.493,273.095C488.836,273.662 489.161,274.24 489.506,274.805C489.647,275.037 489.791,275.266 489.942,275.492L489.955,275.509C489.977,275.536 489.995,275.566 490.011,275.597C490.174,275.925 490.499,276.554 490.817,277.138C491.026,277.521 491.232,277.885 491.384,278.124C491.503,278.311 491.485,278.554 491.339,278.721C491.193,278.888 490.954,278.939 490.753,278.845L490.283,278.769C489.831,278.681 489.286,278.578 488.685,278.473L488.603,278.459C488.975,278.805 489.333,279.127 489.474,279.241C489.928,279.607 490.735,280.21 491.533,280.793C492.221,281.297 492.902,281.785 493.346,282.096C493.879,281.402 494.292,280.855 494.711,280.292C495.188,279.65 495.673,278.987 496.35,278.062C496.517,277.834 496.861,277.414 497.232,276.974C497.447,276.718 497.67,276.455 497.872,276.22C497.727,276.218 497.578,276.217 497.433,276.216C497.024,276.215 496.644,276.217 496.481,276.235C495.504,276.341 493.879,276.413 493.245,276.27C492.644,276.135 492.541,275.719 492.635,275.44C492.712,275.212 492.822,275 492.953,274.798C493.208,274.403 493.551,274.051 493.841,273.68C494.381,272.988 494.929,272.302 495.481,271.618C496.306,270.596 497.14,269.58 497.97,268.562C498.176,268.31 498.409,268.08 498.621,267.834C498.699,267.744 498.774,267.651 498.842,267.552C498.921,267.438 499.041,267.306 499.165,267.171C498.037,267.288 496.005,267.734 495.891,267.75C495.627,267.787 495.123,267.952 494.878,267.932C494.679,267.916 494.537,267.834 494.445,267.734C494.328,267.608 494.243,267.429 494.311,267.162C494.382,266.885 494.536,266.658 494.744,266.464C495.04,266.188 495.481,266 495.777,265.721C496.246,265.28 496.659,264.875 497.058,264.475C497.671,263.858 498.251,263.253 498.942,262.543C499.253,262.224 499.667,261.804 500.052,261.394C500.31,261.12 500.556,260.851 500.746,260.621C500.847,260.5 501.037,260.277 501.199,260.084C501.155,259.922 501.194,259.742 501.317,259.611C501.502,259.414 501.811,259.4 502.013,259.579C502.528,260.037 503.057,260.605 503.583,261.222C504.721,262.56 505.844,264.136 506.76,265.287C506.924,265.492 507.509,266.08 507.873,266.6C508.125,266.959 508.264,267.311 508.258,267.55C508.249,267.939 508.047,268.173 507.717,268.293C507.543,268.357 507.311,268.379 507.055,268.359C506.679,268.331 506.234,268.218 505.939,268.157C505.621,268.091 505.304,268.018 504.989,267.936C504.672,267.852 504.357,267.759 504.046,267.654C504.004,267.64 503.955,267.62 503.903,267.596C504.312,268.451 504.774,269.277 505.246,270.049C506.014,271.305 506.811,272.418 507.458,273.281C507.649,273.535 507.876,273.762 508.081,274.005C508.184,274.126 508.282,274.251 508.371,274.382C508.484,274.549 508.71,274.757 508.868,274.955C508.997,275.116 509.09,275.278 509.132,275.419C509.224,275.736 509.156,276.011 508.849,276.221C508.763,276.28 508.643,276.331 508.489,276.358C508.289,276.392 507.995,276.388 507.647,276.347C506.436,276.203 504.45,275.629 504.204,275.586C504.162,275.578 504.107,275.566 504.047,275.551C504.533,276.077 505.249,276.673 505.336,276.762L509.321,281.025C509.565,281.282 509.845,281.507 510.099,281.754C510.225,281.876 510.346,282.003 510.456,282.14C510.6,282.319 510.869,282.537 511.061,282.75C511.21,282.915 511.32,283.084 511.372,283.234C511.482,283.549 511.43,283.834 511.139,284.07C510.861,284.294 510.537,284.406 510.183,284.444C509.609,284.505 508.943,284.337 508.364,284.319C507.447,284.291 506.535,284.09 505.622,284.005C505.261,283.972 504.9,283.958 504.538,283.986C504.369,283.999 504.184,284.051 504.024,284.138C503.894,284.209 503.775,284.301 503.718,284.427C503.646,284.583 503.619,284.795 503.605,285.008C503.591,285.224 503.595,285.442 503.604,285.624L504.713,285.588C505.658,285.618 506.639,285.778 507.598,285.852C507.994,285.883 508.385,285.899 508.768,285.882L517.282,285.693C517.297,285.397 517.316,284.993 517.331,284.59C517.345,284.215 517.355,283.842 517.355,283.561L517.307,275.72C516.564,275.762 515.211,275.821 514.344,275.751C513.841,275.71 513.47,275.59 513.323,275.469C513.19,275.358 513.125,275.227 513.104,275.095C513.085,274.985 513.095,274.857 513.157,274.719C513.212,274.597 513.333,274.438 513.524,274.269C513.967,273.877 514.88,273.322 515.687,272.823C516.259,272.469 516.776,272.152 516.964,271.952C517.153,271.75 517.44,271.56 517.759,271.376C518.099,271.18 518.482,270.988 518.763,270.761C518.898,270.652 519.024,270.553 519.024,270.405C519.024,270.12 519.047,269.458 519.078,268.681C519.147,266.974 519.258,264.704 519.258,264.704C519.269,264.464 519.45,264.266 519.689,264.234C519.689,264.234 520.441,264.132 521.157,264.072C521.552,264.04 521.936,264.021 522.192,264.035C522.449,264.049 522.799,264.04 523.153,264.024C523.891,263.989 524.642,263.916 524.642,263.916C524.783,263.903 524.923,263.95 525.027,264.045C525.131,264.141 525.19,264.276 525.189,264.417C525.189,264.417 525.166,266.27 525.289,267.344C525.783,266.876 526.306,266.358 526.812,265.844C528.364,264.27 529.766,262.732 529.766,262.732C529.948,262.531 530.258,262.514 530.462,262.692C530.462,262.692 532.111,264.13 533.628,265.415C534.495,266.15 535.318,266.836 535.759,267.168C536.886,268.017 537.907,268.72 538.92,269.368C540.492,270.374 542.043,271.246 543.924,272.318C544.098,272.416 545.934,273.376 546.877,274.079C547.171,274.298 547.387,274.506 547.49,274.663C547.628,274.873 547.64,275.067 547.603,275.215C547.577,275.32 547.518,275.433 547.394,275.528C547.297,275.603 547.068,275.695 546.732,275.742C545.782,275.875 543.633,275.861 542.671,275.846ZM291.188,285.222C290.334,284.432 289.19,283.313 289.123,283.253L285.145,279.545C282.514,277.169 279.447,274.59 276.194,272.473C274.017,271.056 271.757,269.846 269.489,269.047C266.694,268.063 263.364,267.306 260,266.806C256.619,266.304 253.204,266.063 250.259,266.116C243.064,266.246 230.678,268.065 217.605,272.062C207.512,275.148 197.009,279.532 188.174,285.447C190.803,285.89 193.297,286.566 195.73,287.377C197.505,287.969 199.247,288.634 200.986,289.332C201.283,289.122 203.409,287.611 205.388,286.16C206.53,285.322 207.623,284.505 208.282,283.973C210.235,282.397 212.417,280.904 214.703,279.598C216.996,278.289 219.392,277.168 221.765,276.34C222.404,276.117 223.438,275.79 224.514,275.459C226.507,274.846 228.641,274.219 228.641,274.219C228.903,274.142 229.179,274.292 229.256,274.554C229.333,274.816 229.183,275.092 228.921,275.169C228.921,275.169 226.793,275.795 224.806,276.406C223.744,276.734 222.723,277.056 222.092,277.277C219.775,278.086 217.435,279.182 215.196,280.462C212.958,281.741 210.821,283.204 208.909,284.749C208.241,285.288 207.135,286.116 205.978,286.965C204.48,288.064 202.898,289.198 202.084,289.778C204.601,290.807 207.126,291.893 209.75,292.919C210.758,293.313 211.786,293.675 212.831,294.004C212.853,293.965 212.88,293.928 212.914,293.895C213.837,292.971 215.119,291.777 216.463,290.592C217.736,289.47 219.064,288.358 220.197,287.494C222.66,285.613 224.961,284.112 227.308,282.757C229.703,281.374 232.147,280.145 234.862,278.82C236.181,278.176 237.548,277.576 238.934,277.021C240.318,276.468 241.721,275.961 243.113,275.502L247.256,274.104C247.515,274.016 247.796,274.155 247.884,274.413C247.972,274.672 247.833,274.953 247.575,275.041L243.423,276.443C242.05,276.896 240.667,277.396 239.303,277.942C237.939,278.488 236.595,279.079 235.298,279.712C232.605,281.027 230.181,282.247 227.805,283.619C225.494,284.954 223.228,286.434 220.802,288.286C219.686,289.139 218.378,290.235 217.124,291.341C215.926,292.397 214.779,293.461 213.897,294.328C217.617,295.414 221.532,296.102 225.474,296.384C227.169,296.505 228.87,296.551 230.561,296.521C230.55,296.437 230.562,296.348 230.598,296.264C232.254,292.401 234.55,289.131 237.332,286.335C240.117,283.538 243.39,281.217 247,279.254C247.651,278.899 248.579,278.466 249.566,278.038C250.962,277.432 252.478,276.832 253.493,276.472C253.645,276.418 253.909,276.347 254.209,276.273C254.906,276.102 255.805,275.915 255.805,275.915C256.072,275.859 256.334,276.031 256.39,276.299C256.446,276.566 256.274,276.828 256.006,276.884C256.006,276.884 255.303,277.03 254.666,277.181C254.319,277.264 253.992,277.346 253.825,277.405C252.979,277.706 251.78,278.175 250.599,278.674C249.413,279.175 248.245,279.706 247.474,280.125C243.952,282.043 240.756,284.307 238.039,287.038C235.383,289.707 233.185,292.822 231.588,296.494C234.985,296.373 238.336,295.943 241.532,295.2C242.137,295.059 242.741,294.911 243.345,294.755C243.348,294.742 243.352,294.729 243.357,294.717C244.165,292.495 245.399,290.505 246.894,288.71C249.104,286.057 251.886,283.828 254.69,281.895C255.432,281.384 256.208,280.907 257,280.459C257.787,280.013 258.589,279.595 259.389,279.195L261.403,278.219C261.649,278.101 261.945,278.206 262.063,278.452C262.181,278.698 262.077,278.994 261.83,279.112L259.832,280.081C259.047,280.473 258.26,280.884 257.489,281.322C256.723,281.756 255.971,282.217 255.254,282.712C252.523,284.596 249.812,286.763 247.661,289.348C246.381,290.886 245.3,292.573 244.537,294.437C247.329,293.671 250.107,292.752 252.85,291.732C253.777,291.387 254.699,291.031 255.616,290.664C255.621,290.65 255.628,290.636 255.635,290.621C256.746,288.401 258.157,286.356 259.872,284.629C261.6,282.89 263.635,281.474 265.983,280.526C266.237,280.424 266.525,280.547 266.628,280.8C266.73,281.053 266.607,281.342 266.354,281.444C264.134,282.341 262.211,283.684 260.578,285.33C259.195,286.724 258.02,288.337 257.049,290.083C259.333,289.141 261.583,288.144 263.786,287.122C264.881,286.613 265.979,286.215 266.976,285.91C268.379,285.481 269.584,285.237 270.304,285.13C270.586,285.088 271.261,285.074 272.057,285.079C273.595,285.09 275.601,285.162 275.937,285.175C278.664,285.137 281.361,285.109 284.018,285.117C285.937,285.122 287.835,285.147 289.709,285.199C290.051,285.209 290.577,285.217 291.188,285.222ZM503.038,267.181L503.003,267.168C502.999,267.167 502.991,267.16 502.99,267.164C502.984,267.189 503.01,267.188 503.038,267.181Z" style="fill:#3f9fd2;"/>
            </g>
            <g transform="matrix(1,0,0,1,-1.03407,166.05)">
                <path d="M524.26,240.334C524.33,240.114 524.38,239.888 524.411,239.658C524.77,237.012 522.617,234.682 519.993,233.495C517.37,232.309 514.216,232.238 512.488,234.316C511.904,235.018 511.615,235.756 511.519,236.443C511.39,237.358 511.6,238.179 511.898,238.677C512.103,239.019 512.508,239.238 512.974,239.355C513.646,239.524 514.453,239.469 515.117,239.15C516.04,238.705 516.633,237.72 516.184,236.114C516.11,235.851 516.264,235.578 516.527,235.504C516.79,235.431 517.063,235.584 517.137,235.847C517.764,238.086 516.833,239.422 515.546,240.042C514.675,240.461 513.616,240.537 512.733,240.316C511.99,240.129 511.376,239.732 511.048,239.186C510.663,238.543 510.372,237.487 510.538,236.305C510.657,235.459 511.007,234.547 511.726,233.682C513.727,231.276 517.364,231.218 520.402,232.592C523.434,233.963 525.809,236.734 525.394,239.791C525.344,240.159 525.255,240.52 525.126,240.864C525.11,240.908 525.093,240.951 525.075,240.994C525.299,241.192 525.514,241.4 525.719,241.617C526.161,242.084 526.556,242.596 526.886,243.153C527.182,243.652 527.405,244.179 527.555,244.727C527.706,245.272 527.784,245.838 527.791,246.416C527.813,248.271 527.047,250.058 525.816,251.145C525.477,251.444 525.104,251.692 524.702,251.877C524.772,252.909 524.635,253.968 524.324,254.969C523.91,256.306 523.06,257.517 521.977,258.188C521.879,258.249 521.779,258.306 521.678,258.358C521.946,259.093 522.095,259.914 522.16,260.762C522.282,262.362 522.107,264.062 521.923,265.438C521.823,266.195 521.622,267.065 521.598,267.903C521.583,268.406 521.631,268.897 521.832,269.333C522.164,270.053 522.594,270.516 523.12,270.852C524.341,271.631 526.013,271.809 528.072,272.738C528.475,272.919 528.937,273.25 529.322,273.647C529.668,274.005 529.947,274.416 530.089,274.815C530.146,274.818 530.204,274.821 530.263,274.825C530.495,274.839 531.454,274.883 532.334,275.273C532.796,275.479 533.235,275.777 533.559,276.2C534.059,276.854 534.396,277.675 534.622,278.673C534.862,279.732 534.978,280.998 535.056,282.476C535.137,284.005 535.424,285.322 535.904,286.465C536.447,287.758 537.238,288.826 538.247,289.722C539.258,290.62 540.582,291.23 541.965,291.654C544.314,292.373 546.839,292.55 548.398,292.605C548.423,292.606 550.731,292.645 553.115,292.572C554.213,292.538 555.326,292.481 556.239,292.384C557.751,292.224 559.177,291.981 560.549,291.686C566.378,290.431 571.253,288.24 577.702,287.304C580.935,286.834 584.107,287.015 587.247,287.504C591.898,288.23 596.478,289.637 601.083,290.575C603.488,291.065 607.52,291.943 611.104,291.827C613.508,291.749 615.713,291.24 617.003,289.77C617.52,289.18 617.544,288.576 617.295,288.027C616.861,287.075 615.735,286.283 614.833,285.899C614.49,285.752 614.139,285.617 613.786,285.49C613.249,285.297 612.704,285.122 612.163,284.952C610.452,284.413 606.11,283.584 604.027,281.999C603.186,281.359 602.692,280.592 602.708,279.714C602.723,278.833 603.278,277.778 604.738,276.586C607.734,274.139 610.968,273.726 614.312,274.278C617.86,274.864 621.535,276.555 625.165,277.97C628.867,279.413 632.518,280.578 635.936,279.828C638.155,279.341 639.214,278.436 639.659,277.229C640.264,275.584 639.819,273.481 639.705,271.347C639.591,269.213 639.779,267.057 641.32,265.222C642.105,264.288 643.35,263.509 644.666,262.968C646.06,262.395 647.53,262.088 648.585,262.114C649.63,262.139 650.577,262.343 651.331,262.404C651.687,262.433 651.988,262.442 652.213,262.326C652.226,262.32 652.238,262.314 652.251,262.309L652.417,262.24C652.709,262.099 657.036,260.019 661.603,258.547C663.868,257.817 666.193,257.238 668.122,257.107C672.843,256.786 677.158,258.14 681.224,260.502C689.759,265.461 697.19,274.906 705.024,282.337C710.642,287.665 716.461,291.958 723.092,292.672C728.215,293.224 733.54,292.7 738.651,291.288C743.723,289.888 748.584,287.613 752.826,284.643C756.859,281.82 759.793,277.806 762.685,273.624C765.525,269.518 768.323,265.25 772.023,261.735C775.014,258.895 778.59,256.545 783.242,255.157C790.867,252.882 796.259,253.397 800.56,255.483C805.321,257.792 808.748,262.056 812.386,266.689C816.916,272.456 821.793,278.799 830.221,282.425C832.91,283.582 835.582,284.556 838.318,285.239C841.045,285.919 843.836,286.309 846.769,286.298C847.805,286.294 854.975,286.376 857.867,286.355C858.339,286.352 858.694,286.346 858.883,286.336C858.967,286.306 859.06,286.298 859.153,286.317C859.44,286.376 859.515,286.57 859.537,286.623C859.605,286.788 859.596,286.954 859.477,287.114C859.44,287.164 859.368,287.251 859.217,287.298C859.187,287.307 859.12,287.323 859.016,287.33C858.84,287.343 858.435,287.351 857.874,287.355C854.981,287.376 847.809,287.294 846.773,287.298C843.754,287.309 840.883,286.909 838.076,286.209C835.289,285.513 832.565,284.522 829.825,283.343C821.223,279.642 816.224,273.193 811.6,267.306C808.062,262.801 804.754,258.628 800.124,256.382C796.003,254.383 790.835,253.935 783.527,256.115C779.042,257.453 775.595,259.721 772.711,262.46C769.061,265.926 766.308,270.142 763.507,274.192C760.546,278.474 757.528,282.571 753.399,285.461C749.065,288.495 744.099,290.82 738.917,292.251C733.684,293.696 728.231,294.23 722.985,293.665C716.151,292.929 710.127,288.553 704.337,283.061C696.559,275.683 689.197,266.288 680.723,261.365C676.832,259.105 672.706,257.796 668.19,258.102C666.33,258.228 664.092,258.793 661.909,259.496C657.247,260.999 652.838,263.145 652.838,263.145C652.829,263.149 652.819,263.154 652.81,263.158L652.644,263.226C652.379,263.356 652.057,263.415 651.683,263.417C650.883,263.42 649.79,263.141 648.561,263.111C647.613,263.088 646.297,263.376 645.045,263.891C643.885,264.368 642.776,265.039 642.084,265.863C640.428,267.834 640.595,270.236 640.789,272.5C640.948,274.353 641.127,276.127 640.594,277.574C640.057,279.034 638.835,280.212 636.15,280.802C633.215,281.446 630.113,280.79 626.955,279.697C622.699,278.224 618.337,275.954 614.149,275.262C611.084,274.756 608.115,275.115 605.368,277.358C604.234,278.285 603.717,279.047 603.704,279.732C603.694,280.311 604.076,280.783 604.631,281.206C606.632,282.728 610.818,283.484 612.462,284.001C613.016,284.175 613.573,284.355 614.123,284.552C614.495,284.686 614.863,284.828 615.224,284.982C616.325,285.452 617.673,286.451 618.202,287.614C618.604,288.499 618.586,289.477 617.752,290.428C616.299,292.083 613.843,292.735 611.137,292.823C607.47,292.941 603.345,292.052 600.884,291.551C596.294,290.616 591.729,289.212 587.094,288.489C584.051,288.014 580.978,287.835 577.845,288.289C571.421,289.222 566.565,291.409 560.758,292.659C559.353,292.962 557.893,293.21 556.344,293.375C555.41,293.474 554.269,293.533 553.146,293.568C550.729,293.642 548.388,293.601 548.363,293.601C546.741,293.543 544.116,293.354 541.673,292.606C540.15,292.14 538.699,291.456 537.586,290.467C536.466,289.471 535.589,288.286 534.986,286.851C534.466,285.612 534.149,284.185 534.062,282.529C533.987,281.115 533.88,279.905 533.651,278.893C533.461,278.052 533.19,277.356 532.768,276.805C532.487,276.438 532.071,276.22 531.666,276.08C531.073,275.874 530.491,275.835 530.26,275.822C530.313,277.06 529.764,277.965 528.907,278.438C528.04,278.917 526.807,278.954 525.479,278.349C525.389,278.674 525.32,279.031 525.261,279.401C525.072,280.597 525.015,281.915 524.905,282.796C524.709,284.372 524.468,285.923 524.033,287.252C523.672,288.354 523.177,289.306 522.482,290.014C521.732,290.778 520.238,291.303 518.522,291.574C516.437,291.904 514.028,291.886 512.381,291.617C510.86,291.368 508.544,290.567 505.839,290.027C504.532,289.766 503.132,289.566 501.687,289.526C501.638,289.543 501.586,289.553 501.532,289.554C501.465,289.555 501.401,289.543 501.342,289.521C500.653,289.521 499.994,289.61 499.367,289.743C498.278,289.974 497.284,290.338 496.4,290.622C495.577,290.887 494.84,291.082 494.203,291.081C493.639,291.08 493.06,291.013 492.472,290.906C490.344,290.517 488.095,289.566 486.106,289.592C483.293,289.628 480.741,289.809 478.412,290.042C473.775,290.507 470.016,291.178 466.836,291.348C464.828,291.455 463.134,291.6 461.145,291.52C460.009,291.475 458.778,291.356 457.34,291.115C456.313,290.942 455.413,290.76 454.589,290.575C452.288,290.056 450.582,289.509 448.304,289.065C447.069,288.824 445.566,288.789 444.171,288.633C443.523,288.561 442.898,288.463 442.328,288.313C441.837,288.184 441.458,287.911 441.18,287.549C440.811,287.068 440.624,286.417 440.606,285.74C440.603,285.625 440.632,285.406 440.639,285.15C440.644,284.954 440.638,284.726 440.552,284.529C440.459,284.316 440.244,284.18 439.843,284.171C439.326,284.16 439.071,284.262 438.984,284.508C438.919,284.69 438.922,284.903 438.932,285.114C438.947,285.41 438.983,285.705 438.978,285.95C438.969,286.444 438.876,286.812 438.748,287.1C438.55,287.545 438.265,287.802 438.026,288.024C437.795,288.238 437.466,288.426 437.117,288.575C436.551,288.818 435.938,288.962 435.706,288.997C434.923,289.112 434.28,289.126 433.584,289.206C433.313,289.237 433.034,289.279 432.733,289.342C431.412,289.62 430.162,289.987 428.944,290.421C427.094,291.079 425.316,291.891 423.472,292.779C422.263,293.361 420.896,293.772 419.502,293.957C418.098,294.144 416.667,294.102 415.344,293.78C413.966,293.445 412.714,292.748 411.364,292.42C410.841,292.293 410.303,292.224 409.732,292.27C406.917,292.493 404.464,293.905 401.804,294.618C400.619,294.935 399.395,295.121 398.088,295.032C396.75,294.941 395.413,294.592 394.078,294.119C391.18,293.093 388.297,291.47 385.448,290.803C381.861,289.963 377.144,288.924 372.163,288.704C369.242,288.576 366.229,288.73 363.303,289.377C357.43,290.677 352.869,291.352 349.329,291.67C344.555,292.1 341.626,291.884 339.839,291.672C338.105,291.466 335.583,291.426 332.91,290.692C331.47,290.297 329.987,289.702 328.557,288.78C327.48,288.085 324.667,285.996 322.219,284.326C321.603,283.906 321.01,283.512 320.475,283.175C320.43,283.264 320.382,283.354 320.331,283.444C320.03,283.978 319.636,284.525 319.135,285.035L319.139,285.039C318.208,285.989 316.765,286.247 315.376,286.059C313.88,285.857 312.473,285.138 311.882,284.362C311.442,283.784 311.172,283.089 311.056,282.355C310.877,282.385 310.699,282.416 310.52,282.448C310.168,282.511 309.814,282.578 309.461,282.649C309.536,283.015 309.533,283.392 309.44,283.763C309.328,284.21 309.083,284.651 308.67,285.049C308.442,285.268 308.047,285.554 307.563,285.749C307.165,285.909 306.708,286.007 306.236,285.967C305.852,285.935 305.52,285.856 305.234,285.741C305.116,285.904 304.991,286.068 304.857,286.231C304.349,286.851 303.729,287.46 302.935,287.977C301.375,288.993 299.269,289.639 296.963,290.027C293.935,290.537 290.559,290.608 287.667,290.54C284.373,290.463 281.562,289.725 278.942,288.609C275.013,286.937 271.52,284.405 267.45,281.997C264.796,280.428 261.85,278.98 258.615,277.774C255.7,276.686 252.552,275.794 249.172,275.183C245.282,274.48 241.991,274.214 238.809,274.245C233.942,274.293 229.325,275.034 223.214,275.963C222.197,276.118 220.283,276.515 218.075,277.001C213.665,277.971 208.088,279.295 206.091,279.772C205.774,279.848 204.175,280.343 201.984,281.033C199.252,281.894 195.604,283.057 192.354,284.096C192.354,284.096 185.725,286.185 185.716,286.188C176.115,288.942 166.196,288.472 156.803,285.779C147.461,283.101 138.64,278.225 131.175,272.146C124.545,266.748 117.154,259.654 109.099,254.396C103.668,250.851 97.936,248.14 91.929,247.382C86.601,246.709 81.729,247.8 77.146,249.784C70.182,252.801 63.883,257.871 57.676,262.05C52.39,265.61 46.526,269.478 40.548,272.971C36.547,275.308 32.496,277.478 28.534,279.276C24.991,280.884 18.874,283.535 12.981,285.428C8.906,286.738 4.935,287.682 1.98,287.69C1.707,287.691 1.484,287.47 1.484,287.197C1.483,286.923 1.704,286.701 1.977,286.7C4.853,286.692 8.713,285.76 12.678,284.486C18.531,282.605 24.606,279.972 28.125,278.375C32.057,276.59 36.078,274.436 40.049,272.116C46.007,268.634 51.854,264.778 57.123,261.229C63.379,257.016 69.734,251.916 76.753,248.876C81.495,246.821 86.539,245.703 92.053,246.399C98.204,247.175 104.079,249.936 109.641,253.566C117.725,258.844 125.147,265.959 131.801,271.377C139.164,277.373 147.863,282.185 157.076,284.826C166.292,287.468 176.023,287.937 185.434,285.237L192.052,283.151C195.303,282.111 198.952,280.948 201.686,280.087C203.913,279.386 205.538,278.884 205.861,278.807C207.86,278.329 213.446,277.003 217.862,276.032C220.098,275.54 222.035,275.139 223.065,274.983C229.231,274.044 233.889,273.301 238.799,273.253C242.039,273.221 245.388,273.491 249.349,274.207C252.789,274.829 255.995,275.737 258.962,276.844C262.255,278.072 265.254,279.545 267.955,281.143C271.985,283.527 275.441,286.04 279.331,287.696C281.841,288.765 284.535,289.474 287.69,289.547C290.524,289.614 293.831,289.547 296.798,289.048C298.957,288.684 300.933,288.095 302.393,287.145C303.095,286.689 303.641,286.149 304.089,285.601C304.197,285.47 304.3,285.338 304.398,285.206C304.195,285.01 304.035,284.787 303.912,284.553C303.398,283.574 303.556,282.35 303.841,281.817C304.009,281.505 304.228,281.233 304.487,281.006C304.741,280.782 305.033,280.601 305.35,280.465C305.69,280.32 306.095,280.251 306.501,280.255C306.898,280.258 307.293,280.33 307.624,280.452C307.974,280.582 308.358,280.801 308.698,281.171C308.838,281.323 308.972,281.501 309.091,281.71C309.51,281.625 309.928,281.545 310.345,281.471C310.56,281.432 310.776,281.395 310.99,281.359C310.996,281.084 311.022,280.809 311.067,280.537C311.297,279.133 312.027,277.837 313.076,277.172C314.598,276.206 316.732,276.232 318.415,276.998C320.222,277.821 321.493,279.469 321.057,281.567C321.013,281.779 320.951,282.009 320.869,282.25C321.448,282.611 322.1,283.042 322.779,283.506C325.218,285.17 328.022,287.253 329.096,287.945C330.435,288.809 331.824,289.364 333.174,289.734C335.79,290.453 338.259,290.484 339.956,290.685C341.705,290.893 344.569,291.101 349.24,290.681C352.748,290.365 357.268,289.695 363.088,288.407C366.1,287.74 369.2,287.579 372.207,287.711C377.256,287.934 382.039,288.984 385.675,289.835C388.557,290.51 391.478,292.144 394.41,293.182C395.657,293.624 396.906,293.955 398.155,294.04C399.348,294.122 400.465,293.947 401.547,293.658C404.265,292.929 406.777,291.506 409.654,291.278C410.334,291.225 410.976,291.302 411.599,291.454C412.949,291.782 414.201,292.479 415.579,292.814C416.786,293.107 418.09,293.142 419.371,292.972C420.659,292.8 421.923,292.421 423.041,291.883C424.918,290.979 426.728,290.154 428.611,289.484C429.87,289.036 431.162,288.657 432.529,288.369C432.861,288.299 433.17,288.253 433.47,288.218C434.156,288.139 434.789,288.126 435.561,288.013C435.727,287.988 436.128,287.892 436.536,287.737C436.84,287.622 437.151,287.478 437.351,287.294C437.509,287.148 437.709,286.989 437.84,286.696C437.924,286.505 437.978,286.26 437.984,285.932C437.99,285.593 437.916,285.157 437.938,284.756C437.959,284.375 438.059,284.023 438.286,283.746C438.557,283.416 439.023,283.158 439.864,283.177C440.571,283.192 440.992,283.452 441.253,283.78C441.497,284.085 441.601,284.472 441.627,284.846C441.652,285.214 441.597,285.56 441.601,285.714C441.611,286.098 441.689,286.473 441.86,286.777C442.014,287.051 442.249,287.264 442.582,287.352C443.107,287.49 443.684,287.578 444.281,287.645C445.704,287.804 447.236,287.843 448.494,288.088C450.783,288.534 452.496,289.084 454.807,289.604C455.615,289.786 456.497,289.965 457.505,290.134C458.896,290.367 460.086,290.482 461.185,290.526C462.529,290.58 463.736,290.529 465.001,290.457C464.969,289.965 464.996,289.237 465.003,289.117C465.036,288.561 465.047,287.965 465.043,287.368C465.039,286.767 465.019,286.167 464.991,285.607C464.889,283.565 464.775,281.55 464.694,279.529C464.665,278.783 464.639,278.035 464.621,277.284C464.588,277.229 464.566,277.167 464.557,277.099C464.556,277.09 464.555,277.081 464.555,277.072C464.531,277.034 464.506,276.994 464.502,276.987L463.806,275.97C463.473,275.501 463.136,274.944 462.75,274.446C462.515,274.143 462.262,273.862 461.976,273.648C461.755,273.482 461.71,273.168 461.876,272.948C462.041,272.727 462.355,272.682 462.576,272.848C462.931,273.115 463.248,273.459 463.539,273.836C463.922,274.332 464.258,274.885 464.589,275.356C464.593,274.363 464.78,273.263 464.765,272.216C464.759,271.785 464.718,271.364 464.604,270.967C464.528,270.702 464.682,270.425 464.947,270.349C465.213,270.273 465.49,270.427 465.566,270.693C465.703,271.173 465.757,271.681 465.764,272.202C465.771,272.711 465.73,273.233 465.686,273.75C465.913,273.447 466.19,273.099 466.412,272.737C466.556,272.502 466.677,272.263 466.729,272.028C466.789,271.758 467.056,271.588 467.326,271.648C467.595,271.708 467.765,271.975 467.705,272.245C467.63,272.58 467.467,272.925 467.261,273.259C466.997,273.688 466.662,274.1 466.407,274.444L465.943,275.023C465.906,275.062 465.806,275.133 465.727,275.186C465.689,275.239 465.642,275.283 465.587,275.317C465.586,275.363 465.586,275.408 465.586,275.453C465.598,276.808 465.636,278.151 465.689,279.49C465.769,281.508 465.881,283.519 465.982,285.558C466.011,286.131 466.03,286.746 466.034,287.361C466.038,287.98 466.026,288.599 465.992,289.176C465.985,289.285 465.953,289.98 465.986,290.399C466.247,290.384 466.512,290.369 466.783,290.354C469.95,290.185 473.695,289.515 478.313,289.052C480.466,288.837 482.807,288.666 485.365,288.61C485.375,288.388 485.387,288.085 485.387,288.05L485.408,286.044L485.349,280.769C485.334,280.097 485.275,278.607 485.277,277.399C485.279,276.783 485.297,276.238 485.343,275.897C485.379,275.623 485.631,275.431 485.905,275.467C486.178,275.504 486.371,275.756 486.334,276.029C486.292,276.341 486.278,276.839 486.276,277.402C486.273,278.601 486.331,280.08 486.345,280.746L486.4,286.029L486.377,288.041C486.377,288.084 486.378,288.342 486.367,288.599C486.843,288.611 487.333,288.67 487.831,288.76C489.923,289.136 492.172,290.083 494.204,290.086C494.753,290.086 495.385,289.903 496.095,289.675C497.008,289.381 498.035,289.008 499.161,288.769C499.752,288.644 500.37,288.555 501.011,288.532C500.936,284.948 500.785,281.129 500.725,277.317C500.682,274.667 500.684,272.021 500.784,269.458C500.795,269.185 501.025,268.972 501.298,268.983C501.571,268.994 501.784,269.224 501.773,269.497C501.675,272.042 501.675,274.67 501.718,277.301C501.781,281.123 501.935,284.951 502.012,288.542C503.41,288.601 504.764,288.797 506.034,289.051C508.725,289.588 511.029,290.387 512.542,290.635C514.104,290.89 516.389,290.904 518.366,290.591C519.832,290.359 521.131,289.969 521.771,289.317C522.367,288.71 522.778,287.887 523.087,286.942C523.504,285.67 523.73,284.182 523.918,282.673C524.047,281.637 524.106,280.004 524.384,278.659C524.528,277.961 524.734,277.337 525.021,276.884C525.435,276.233 526.006,275.675 526.844,275.298C527.414,275.042 528.115,274.869 528.986,274.818C528.882,274.653 528.749,274.493 528.604,274.342C528.313,274.042 527.967,273.786 527.662,273.649C525.546,272.695 523.836,272.494 522.583,271.694C521.908,271.263 521.351,270.675 520.925,269.751C520.66,269.178 520.58,268.535 520.599,267.873C520.625,267.001 520.829,266.094 520.934,265.307C521.109,263.991 521.282,262.367 521.165,260.838C521.107,260.081 520.98,259.347 520.739,258.693C519.873,258.873 518.923,258.727 517.947,258.111C517.679,257.943 517.229,257.513 516.905,257.023C516.687,256.693 516.529,256.337 516.489,256.016C516.423,255.492 516.601,255.026 517.223,254.758C517.798,254.51 518.421,254.624 519.018,254.981C519.96,255.543 520.842,256.736 521.257,257.452C521.323,257.418 521.388,257.381 521.452,257.341C522.345,256.788 523.031,255.777 523.373,254.674C523.623,253.868 523.747,253.02 523.72,252.186C522.811,252.347 521.8,252.199 520.738,251.628C520.009,251.237 518.964,250.304 518.494,249.299C518.113,248.484 518.091,247.629 518.716,246.912C519.229,246.323 519.924,246.204 520.641,246.369C521.505,246.567 522.401,247.206 522.886,247.695C523.767,248.583 524.307,249.669 524.556,250.83C524.769,250.71 524.97,250.565 525.158,250.399C526.19,249.488 526.815,247.983 526.797,246.428C526.791,245.936 526.725,245.455 526.597,244.99C526.469,244.528 526.281,244.082 526.031,243.66C525.738,243.166 525.388,242.714 524.996,242.299C524.863,242.158 524.725,242.021 524.583,241.889C523.698,243.128 522.255,243.601 520.863,243.424C519.486,243.25 518.169,242.435 517.518,241.133C517.071,240.241 517.219,239.566 517.611,239.099C518.152,238.454 519.311,238.201 520.319,238.422C520.604,238.484 520.884,238.568 521.159,238.667C521.426,238.763 521.688,238.873 521.945,238.989C522.358,239.175 522.76,239.381 523.151,239.607C523.533,239.829 523.903,240.07 524.26,240.334ZM858.731,287.189C858.78,287.235 858.851,287.276 858.952,287.296C858.867,287.279 858.792,287.241 858.731,287.189ZM316.651,281.258L316.651,281.261C316.69,281.41 316.657,281.568 316.563,281.689C316.469,281.811 316.324,281.882 316.171,281.882C315.944,281.882 315.666,281.81 315.48,281.697C315.463,281.687 315.447,281.677 315.432,281.666C314.3,281.85 313.17,282.013 312.037,282.193C312.126,282.765 312.332,283.307 312.675,283.757C313.151,284.382 314.307,284.907 315.509,285.069C316.58,285.214 317.707,285.071 318.425,284.339L318.428,284.343C318.864,283.899 319.206,283.423 319.468,282.958C319.525,282.858 319.577,282.759 319.626,282.66C319.57,282.629 319.516,282.598 319.463,282.568C319.071,282.349 318.166,281.792 317.306,281.459C317.079,281.372 316.857,281.299 316.651,281.258ZM308.482,282.857C308.369,282.882 308.256,282.908 308.143,282.935C307.975,282.974 307.209,283.203 306.895,283.315C306.888,283.317 306.882,283.32 306.876,283.324C306.534,283.692 306.211,284.253 305.811,284.883C305.963,284.927 306.132,284.958 306.319,284.974C306.629,285 306.929,284.929 307.191,284.824C307.534,284.685 307.815,284.485 307.977,284.33C308.238,284.077 308.4,283.802 308.471,283.519C308.526,283.299 308.527,283.075 308.482,282.857ZM308.051,281.937C308.025,281.904 307.997,281.872 307.97,281.842C307.751,281.605 307.505,281.465 307.28,281.382C307.048,281.296 306.771,281.249 306.493,281.247C306.228,281.244 305.963,281.282 305.741,281.377C305.521,281.472 305.319,281.596 305.143,281.751C304.973,281.901 304.828,282.08 304.717,282.286C304.529,282.638 304.453,283.444 304.793,284.09C304.844,284.187 304.905,284.279 304.978,284.365C305.462,283.62 305.836,282.957 306.237,282.556C306.262,282.531 306.371,282.448 306.56,282.38C306.901,282.258 307.733,282.011 307.916,281.968L308.051,281.937ZM319.995,281.728C320.033,281.602 320.063,281.481 320.087,281.366C320.42,279.759 319.388,278.532 318.003,277.902C316.618,277.272 314.861,277.217 313.609,278.012C312.778,278.539 312.231,279.585 312.05,280.698C312.023,280.862 312.004,281.028 311.993,281.195C313.082,281.023 314.168,280.865 315.255,280.689C315.336,280.584 315.459,280.479 315.64,280.383C316.026,280.178 316.604,280.192 317.237,280.384C318.258,280.695 319.466,281.433 319.947,281.701L319.995,281.728ZM529.257,275.802C528.653,275.821 528.14,275.903 527.701,276.038C526.809,276.313 526.247,276.812 525.862,277.418L525.859,277.423C526.853,277.886 527.775,277.921 528.424,277.563C528.994,277.248 529.306,276.629 529.257,275.802ZM520.272,257.748C519.949,257.232 519.424,256.536 518.837,256.068C518.435,255.748 518.016,255.502 517.618,255.674C517.554,255.701 517.505,255.727 517.486,255.772C517.459,255.833 517.476,255.904 517.496,255.979C517.523,256.083 517.571,256.19 517.629,256.296C517.861,256.718 518.254,257.126 518.479,257.268C519.1,257.66 519.707,257.799 520.272,257.748ZM523.611,251.183C523.415,250.151 522.957,249.181 522.179,248.396C521.797,248.011 521.099,247.495 520.419,247.339C520.068,247.259 519.718,247.278 519.466,247.566C519.124,247.959 519.187,248.431 519.396,248.878C519.774,249.688 520.621,250.436 521.209,250.752C522.067,251.212 522.882,251.326 523.611,251.183ZM523.821,241.247C523.779,241.215 523.737,241.183 523.695,241.152C523.361,240.903 523.012,240.675 522.653,240.467C522.291,240.257 521.918,240.067 521.536,239.894C521.303,239.789 521.065,239.689 520.823,239.602C520.588,239.518 520.35,239.445 520.107,239.392C519.569,239.275 518.958,239.322 518.558,239.578C518.425,239.663 518.318,239.772 518.27,239.917C518.202,240.124 518.25,240.378 518.406,240.689C518.907,241.691 519.928,242.305 520.987,242.439C522.037,242.573 523.134,242.231 523.793,241.287L523.821,241.247Z" style="fill:#e24c6a;"/>
            </g>
        </g>
    </g>
</svg>
