<svg id="Calque_1" data-name="Calque 1" xmlns="http://www.w3.org/2000/svg" viewBox="0 0 48 48"><defs><style>.cls-1{fill:#5b6870;}</style></defs><title>img-tableau-bord</title><path class="cls-1" d="M33.37,10.64H31.11v-.7A1.9,1.9,0,0,0,29.21,8h-9.9a1.9,1.9,0,0,0-1.9,1.9v.7H14.62a3.73,3.73,0,0,0-3.72,3.72V36.24A3.73,3.73,0,0,0,14.62,40H33.37a3.73,3.73,0,0,0,3.73-3.72V14.36A3.73,3.73,0,0,0,33.37,10.64Zm-14.76-.7a.7.7,0,0,1,.7-.7h9.9a.7.7,0,0,1,.7.7v.82a.57.57,0,0,0,0,1v1.86a.7.7,0,0,1-.7.71h-9.9a.71.71,0,0,1-.7-.71ZM35.9,36.24a2.52,2.52,0,0,1-2.53,2.52H14.62a2.52,2.52,0,0,1-2.52-2.52V14.36a2.52,2.52,0,0,1,2.52-2.52h2.79v1.74a1.91,1.91,0,0,0,1.9,1.91h9.9a1.91,1.91,0,0,0,1.9-1.91V11.84h2.26a2.52,2.52,0,0,1,2.53,2.52Z"/><path class="cls-1" d="M20.61,18.45h-5.2a1.91,1.91,0,0,0-1.91,1.9V24a1.91,1.91,0,0,0,1.91,1.9h5.2A1.91,1.91,0,0,0,22.52,24V20.35A1.91,1.91,0,0,0,20.61,18.45ZM21.32,24a.7.7,0,0,1-.71.7h-5.2a.7.7,0,0,1-.71-.7V20.35a.71.71,0,0,1,.71-.7h5.2a.71.71,0,0,1,.71.7Z"/><path class="cls-1" d="M20.61,27.57h-5.2a1.91,1.91,0,0,0-1.91,1.9v3.64A1.92,1.92,0,0,0,15.41,35h5.2a1.92,1.92,0,0,0,1.91-1.91V29.47A1.91,1.91,0,0,0,20.61,27.57Zm.71,5.54a.71.71,0,0,1-.71.71h-5.2a.71.71,0,0,1-.71-.71V29.47a.7.7,0,0,1,.71-.7h5.2a.7.7,0,0,1,.71.7Z"/><path class="cls-1" d="M32.33,18.45H27.12a1.91,1.91,0,0,0-1.9,1.9V24a1.91,1.91,0,0,0,1.9,1.9h5.21A1.91,1.91,0,0,0,34.24,24V20.35A1.91,1.91,0,0,0,32.33,18.45ZM33,24a.7.7,0,0,1-.71.7H27.12a.7.7,0,0,1-.7-.7V20.35a.71.71,0,0,1,.7-.7h5.21a.71.71,0,0,1,.71.7Z"/><path class="cls-1" d="M32.33,27.57H27.12a1.91,1.91,0,0,0-1.9,1.9v3.64A1.91,1.91,0,0,0,27.12,35h5.21a1.92,1.92,0,0,0,1.91-1.91V29.47A1.91,1.91,0,0,0,32.33,27.57ZM33,33.11a.71.71,0,0,1-.71.71H27.12a.71.71,0,0,1-.7-.71V29.47a.7.7,0,0,1,.7-.7h5.21a.7.7,0,0,1,.71.7Z"/></svg>