<svg id="Calque_1" data-name="Calque 1" xmlns="http://www.w3.org/2000/svg" viewBox="0 0 48 48"><defs><style>.cls-1{fill:#5b6870;}</style></defs><title>pic-print</title><path class="cls-1" d="M37.2,16.86H34.5V8.5a.6.6,0,0,0-.6-.6H14.1a.6.6,0,0,0-.6.6v8.36H10.8a4,4,0,0,0-3.9,4v8.48a4,4,0,0,0,3.9,4h2.7V39.5a.6.6,0,0,0,.6.6H33.9a.6.6,0,0,0,.6-.6V33.32h2.7a4,4,0,0,0,3.9-4V20.85A4,4,0,0,0,37.2,16.86ZM14.7,9.1H33.3v7.76H14.7ZM33.3,38.9H14.7V26.53H33.3Zm6.6-9.57a2.75,2.75,0,0,1-2.7,2.79H34.5V25.93a.6.6,0,0,0-.6-.6H14.1a.6.6,0,0,0-.6.6v6.19H10.8a2.75,2.75,0,0,1-2.7-2.79V20.85a2.75,2.75,0,0,1,2.7-2.79H37.2a2.75,2.75,0,0,1,2.7,2.79Z"/></svg>