<svg id="Calque_1" data-name="Calque 1" xmlns="http://www.w3.org/2000/svg" viewBox="0 0 48 48"><defs><style>.cls-1{fill:#5b6870;}</style></defs><title>pict-source</title><path class="cls-1" d="M24.76,7a17,17,0,1,0,17,17A17,17,0,0,0,24.76,7ZM40.51,23.4H31.87A25.66,25.66,0,0,0,26.1,8.28,15.78,15.78,0,0,1,40.51,23.4Zm-9.84,0H18.85A24.42,24.42,0,0,1,24.76,8.52,24.37,24.37,0,0,1,30.67,23.4ZM23.42,8.28A25.59,25.59,0,0,0,17.65,23.4H9A15.78,15.78,0,0,1,23.42,8.28ZM9,24.6h8.63a25.74,25.74,0,0,0,5.78,15.12A15.78,15.78,0,0,1,9,24.6Zm9.83,0H30.67a24.42,24.42,0,0,1-5.91,14.88A24.44,24.44,0,0,1,18.84,24.6ZM26.1,39.72A25.74,25.74,0,0,0,31.87,24.6h8.64A15.78,15.78,0,0,1,26.1,39.72Z"/></svg>