<svg id="Calque_1" data-name="Calque 1" xmlns="http://www.w3.org/2000/svg" viewBox="0 0 48 48"><defs><style>.cls-1{fill:#5b6870;}</style></defs><title>pict-voir</title><path class="cls-1" d="M46.56,23.78C43.56,16.06,35.49,10.7,26.09,10h-.33a11.31,11.31,0,0,0-1.17-.06H24c-10.28,0-19.34,5.57-22.56,13.86a.66.66,0,0,0,0,.44C4.66,32.51,13.72,38.08,24,38.08h.59A11.31,11.31,0,0,0,25.76,38h.33c9.4-.7,17.47-6.06,20.47-13.78A.66.66,0,0,0,46.56,23.78ZM25.84,11.18H26a12.88,12.88,0,0,1,0,25.62h-.25c-.45,0-.9,0-1.36,0a12.87,12.87,0,0,1,0-25.74c.46,0,.91,0,1.36,0ZM2.64,24C5,18.13,10.52,13.75,17.29,12a14,14,0,0,0,0,24C10.52,34.25,5,29.87,2.64,24ZM32.9,35.34a14,14,0,0,0,0-22.68C38.65,14.74,43.25,18.78,45.35,24,43.25,29.22,38.65,33.26,32.9,35.34Z"/><path class="cls-1" d="M19.61,24.17A5.15,5.15,0,1,0,24.76,19,5.16,5.16,0,0,0,19.61,24.17Zm9.1,0a4,4,0,1,1-3.95-4A4,4,0,0,1,28.71,24.17Z"/></svg>