<svg id="Calque_1" data-name="Calque 1" xmlns="http://www.w3.org/2000/svg" viewBox="0 0 48 48"><defs><style>.cls-1{fill:#5b6870;}</style></defs><title>pict-export-image</title><path class="cls-1" d="M13.18,20.57A2.86,2.86,0,1,0,16,17.71,2.86,2.86,0,0,0,13.18,20.57Zm4.52,0A1.66,1.66,0,1,1,16,18.9,1.66,1.66,0,0,1,17.7,20.57Z"/><path class="cls-1" d="M36.86,28.1l-9.29-8a.61.61,0,0,0-.82,0L9.91,37a3,3,0,0,1-.35-1.39V15.41a3.07,3.07,0,0,1,3.07-3.06h11a.6.6,0,1,0,0-1.2h-11a4.27,4.27,0,0,0-4.27,4.26V35.59a4.27,4.27,0,0,0,4.27,4.26H32.8a4.27,4.27,0,0,0,4.27-4.26V28.72l0-.08A.59.59,0,0,0,36.86,28.1ZM32.8,38.65H12.63a3.06,3.06,0,0,1-2-.72L27.21,21.39l8.66,7.44v6.76A3.07,3.07,0,0,1,32.8,38.65Z"/><path class="cls-1" d="M39.59,8.52a.58.58,0,0,0-.32-.33l-.23,0H31.59a.6.6,0,0,0,0,1.2h6l-7.23,7.23a.6.6,0,0,0,0,.84.61.61,0,0,0,.43.18.58.58,0,0,0,.42-.18l7.23-7.22v6a.6.6,0,0,0,1.2,0V8.75Z"/></svg>