<svg id="Calque_1" data-name="Calque 1" xmlns="http://www.w3.org/2000/svg" viewBox="0 0 48 48"><defs><style>.cls-1{fill:#5b6870;}</style></defs><title>pict-dates</title><path class="cls-1" d="M41.82,9.87H37V7.24a.61.61,0,0,0-1.21,0V9.87H24V7.24a.6.6,0,1,0-1.2,0V9.87H17.9a3.29,3.29,0,0,0-3.29,3.28V36.77a3.29,3.29,0,0,0,3.29,3.29H41.82a3.28,3.28,0,0,0,3.28-3.29V13.15A3.28,3.28,0,0,0,41.82,9.87ZM17.9,11.07h4.85v2.62a.6.6,0,1,0,1.2,0V11.07H35.76v2.62a.61.61,0,0,0,1.21,0V11.07h4.85a2.08,2.08,0,0,1,2.08,2.08v6.38H15.81V13.15A2.09,2.09,0,0,1,17.9,11.07ZM41.82,38.86H17.9a2.1,2.1,0,0,1-2.09-2.09v-16H43.9v16A2.09,2.09,0,0,1,41.82,38.86Z"/><path class="cls-1" d="M10.66,14.33a.59.59,0,0,0,.42.17.58.58,0,0,0,.42-.18.6.6,0,0,0,0-.85L7.71,9.75a.15.15,0,0,0-.07-.05l-.12-.08a.61.61,0,0,0-.46,0l-.12.07s-.05,0-.07.06L3.08,13.47a.6.6,0,0,0,0,.85.61.61,0,0,0,.85,0l2.76-2.72L6.56,37.84l-2.64-2.6a.6.6,0,1,0-.84.86l3.79,3.72a.57.57,0,0,0,.42.17.58.58,0,0,0,.42-.17L11.5,36.1a.6.6,0,0,0,0-.85.59.59,0,0,0-.84,0l-2.9,2.85L7.88,11.6Z"/></svg>