<svg id="Calque_1" data-name="Calque 1" xmlns="http://www.w3.org/2000/svg" viewBox="0 0 48 48"><defs><style>.cls-1{fill:#5b6870;}</style></defs><title>picto-az</title><path class="cls-1" d="M19.69,14.21a.63.63,0,0,0,.42.17.6.6,0,0,0,.42-1L16.16,9.06h0l0,0A.91.91,0,0,0,16,8.92l-.2,0h0l-.2,0a.91.91,0,0,0-.16.11l0,0h0l-4.37,4.29a.6.6,0,1,0,.84.86l3.36-3.3V37.09l-3.36-3.3a.6.6,0,0,0-.84.86L15.31,39h0l0,0a.71.71,0,0,0,.14.1.59.59,0,0,0,.23,0,.57.57,0,0,0,.22,0,.91.91,0,0,0,.16-.11l0,0h0l4.37-4.29a.6.6,0,1,0-.84-.86l-3.35,3.3V10.91Z"/><path class="cls-1" d="M35.12,15a43.52,43.52,0,0,0-2.7-6H31a44.42,44.42,0,0,0-2.72,6,67.39,67.39,0,0,0-2.11,7.13h1.38c.34-1.55.66-2.81,1-3.8h6.37c.3,1,.62,2.25,1,3.8h1.39A67,67,0,0,0,35.12,15Zm-6.28,2.22a38.44,38.44,0,0,1,2.87-6.82,39.19,39.19,0,0,1,2.87,6.82Z"/><polygon class="cls-1" points="35.65 27 35.65 25.8 26.87 25.8 26.87 26.92 34.16 26.92 26.91 37.8 26.91 38.92 35.8 38.92 35.8 37.8 28.48 37.8 35.65 27"/></svg>