<svg id="Calque_1" data-name="Calque 1" xmlns="http://www.w3.org/2000/svg" viewBox="0 0 48 48"><defs><style>.cls-1{fill:#5b6870;}</style></defs><title>pict-corbeille</title><path class="cls-1" d="M41.4,13.32H32.75V10.55a4.14,4.14,0,0,0-4.29-4h-7.4a4.15,4.15,0,0,0-4.3,4v2.77H8.12a.6.6,0,0,0-.6.6.6.6,0,0,0,.6.6h3.1V37.45a4.15,4.15,0,0,0,4.29,4H34a4.15,4.15,0,0,0,4.3-4V14.52h3.1a.6.6,0,0,0,.6-.6A.6.6,0,0,0,41.4,13.32ZM18,10.55a3,3,0,0,1,3.1-2.76h7.4a3,3,0,0,1,3.09,2.76v2.77H18ZM37.1,37.45A3,3,0,0,1,34,40.21H15.51a3,3,0,0,1-3.09-2.76V14.52H37.1Z"/><path class="cls-1" d="M21.06,21.72a.6.6,0,0,0-.6.6V32.4a.6.6,0,1,0,1.2,0V22.32A.6.6,0,0,0,21.06,21.72Z"/><path class="cls-1" d="M28.46,21.72a.6.6,0,0,0-.6.6V32.4a.6.6,0,0,0,.6.6.6.6,0,0,0,.6-.6V22.32A.6.6,0,0,0,28.46,21.72Z"/></svg>