<svg id="Calque_1" data-name="Calque 1" xmlns="http://www.w3.org/2000/svg" viewBox="0 0 48 48"><defs><style>.cls-1{fill:#5b6870;}</style></defs><title>pict-graph-courbe</title><path class="cls-1" d="M41.09,15.05a.75.75,0,0,0,0-.16.46.46,0,0,0-.09-.15l0-.05h0a.64.64,0,0,0-.19-.13.59.59,0,0,0-.23,0h-9a.6.6,0,1,0,0,1.19H39L26.25,28.34l-7.08-7a.6.6,0,0,0-.84,0L7.08,32.46a.6.6,0,0,0,0,.85.65.65,0,0,0,.43.17.58.58,0,0,0,.42-.17L18.75,22.62l7.08,7a.6.6,0,0,0,.84,0L39.9,16.55V24a.6.6,0,0,0,1.2,0V15.12S41.09,15.07,41.09,15.05Z"/></svg>