<svg id="Calque_1" data-name="Calque 1" xmlns="http://www.w3.org/2000/svg" viewBox="0 0 48 48"><defs><style>.cls-1{fill:#5b6870;}</style></defs><title>pict-graph-barre</title><path class="cls-1" d="M39.93,9.07H33.56a.59.59,0,0,0-.6.59V38.33a.6.6,0,0,0,.6.6h6.37a.6.6,0,0,0,.6-.6V9.66A.59.59,0,0,0,39.93,9.07Zm-.6,28.67H34.16V10.26h5.17Z"/><path class="cls-1" d="M27.19,17H20.81a.6.6,0,0,0-.6.6v20.7a.6.6,0,0,0,.6.6h6.38a.6.6,0,0,0,.6-.6V17.63A.6.6,0,0,0,27.19,17Zm-.6,20.71H21.41V18.23h5.18Z"/><path class="cls-1" d="M14.44,25H8.07a.6.6,0,0,0-.6.6V38.33a.6.6,0,0,0,.6.6h6.37a.6.6,0,0,0,.6-.6V25.59A.6.6,0,0,0,14.44,25Zm-.6,12.75H8.67V26.19h5.17Z"/></svg>