<svg id="Calque_1" data-name="Calque 1" xmlns="http://www.w3.org/2000/svg" viewBox="0 0 48 48"><defs><style>.cls-1{fill:#5b6870;}</style></defs><title>pict-pin</title><path class="cls-1" d="M31.12,20.53H28V11.78h.92a2.36,2.36,0,0,0,2.55-2.12V5.85a.6.6,0,0,0-.6-.6H17.17a.6.6,0,0,0-.6.6V9.66a2.36,2.36,0,0,0,2.55,2.12h.81v8.75H16.88a3.33,3.33,0,0,0-3.45,3.19V30.2a.6.6,0,0,0,.6.6H23.4V42.15a.6.6,0,1,0,1.2,0V30.8H34a.6.6,0,0,0,.6-.6V23.72A3.33,3.33,0,0,0,31.12,20.53ZM17.77,9.66V6.45H30.23V9.66c0,.5-.62.92-1.35.92H19.12C18.39,10.58,17.77,10.16,17.77,9.66Zm3.36,2.12h5.63v8.75H21.13Zm-4.25,10H31.12a2.13,2.13,0,0,1,2.25,2V29.6H14.63V23.72A2.13,2.13,0,0,1,16.88,21.73Z"/></svg>