<svg id="Calque_1" data-name="Calque 1" xmlns="http://www.w3.org/2000/svg" viewBox="0 0 48 48"><defs><style>.cls-1{fill:#5b6870;}</style></defs><title>pict-lieu</title><path class="cls-1" d="M24.59,6.33A14.59,14.59,0,0,0,10,20.9C10,32,23.67,41.18,24.25,41.57a.7.7,0,0,0,.34.1.67.67,0,0,0,.33-.1C25.5,41.18,39.15,32,39.15,20.9A14.58,14.58,0,0,0,24.59,6.33Zm0,34c-2.1-1.49-13.37-9.94-13.37-19.43A13.37,13.37,0,1,1,38,20.9C38,30.39,26.68,38.84,24.59,40.33Z"/><path class="cls-1" d="M24.59,15.64a5.26,5.26,0,1,0,5.25,5.26A5.27,5.27,0,0,0,24.59,15.64Zm0,9.31a4.06,4.06,0,1,1,4.05-4.05A4.06,4.06,0,0,1,24.59,25Z"/></svg>