<svg id="Calque_1" data-name="Calque 1" xmlns="http://www.w3.org/2000/svg" viewBox="0 0 48 48"><defs><style>.cls-1{fill:#5b6870;}</style></defs><title>pict-interpretation</title><path class="cls-1" d="M39,7.46a11.78,11.78,0,0,0-16.66,0,11.85,11.85,0,0,0-3.18,10.79l-1.32.66a.61.61,0,0,0-.32.44.59.59,0,0,0,.17.52l1.06,1.06-.89.89H16.6a.6.6,0,0,0-.6.6v1.23l-1.14,1.13H13.63a.6.6,0,0,0-.6.6v1.24L11.9,27.75H10.66a.6.6,0,0,0-.6.6v1.24L7.27,32.38a.6.6,0,0,0-.18.42v5.94a.6.6,0,0,0,.6.6h5.94a.56.56,0,0,0,.42-.18L25.5,27.72l1.06,1.06a.59.59,0,0,0,.52.16.61.61,0,0,0,.44-.32l.66-1.32A11.82,11.82,0,0,0,39,24.12,11.78,11.78,0,0,0,39,7.46Zm-.85,15.81A10.6,10.6,0,0,1,28,26a.61.61,0,0,0-.69.31l-.5,1-.9-.9a.62.62,0,0,0-.84,0l-11.7,11.7H8.29V33.05l2.79-2.79a.58.58,0,0,0,.18-.42V29h.88a.61.61,0,0,0,.43-.17l1.48-1.49a.56.56,0,0,0,.18-.42V26h.88a.63.63,0,0,0,.43-.17L17,24.32a.6.6,0,0,0,.18-.42V23h.88a.64.64,0,0,0,.43-.18L20,21.36a.64.64,0,0,0,.18-.43.6.6,0,0,0-.18-.42l-.9-.9,1-.5a.59.59,0,0,0,.32-.68A10.63,10.63,0,0,1,23.16,8.31a10.58,10.58,0,1,1,15,15Z"/><path class="cls-1" d="M34.17,8.72a3.54,3.54,0,1,0,3.55,3.54A3.55,3.55,0,0,0,34.17,8.72Zm0,5.88a2.34,2.34,0,1,1,2.35-2.34A2.34,2.34,0,0,1,34.17,14.6Z"/><path class="cls-1" d="M22.57,23,12,33.61a.59.59,0,0,0,0,.85.61.61,0,0,0,.42.17.65.65,0,0,0,.43-.17l10.59-10.6a.6.6,0,1,0-.85-.84Z"/></svg>