<svg id="Calque_1" data-name="Calque 1" xmlns="http://www.w3.org/2000/svg" viewBox="0 0 48 48"><defs><style>.cls-1{fill:#5b6870;}</style></defs><title>pict-radar</title><path class="cls-1" d="M41.62,21.54,24.45,6.71a.6.6,0,0,0-.79,0L6.38,21.54a.59.59,0,0,0-.16.69l7.15,16.84a.6.6,0,0,0,.55.37h20.2a.6.6,0,0,0,.55-.37l7.11-16.84A.6.6,0,0,0,41.62,21.54ZM24.6,8.43l15.29,13.2-6,1.13-9.25-8Zm0,7.93L32.34,23,24.6,24.48Zm8.14,7.83-3.18,7.53L25,25.62Zm-8.76,2,4.55,6.12H19.45Zm-1.05-.6-4.51,6.1-3.2-7.53ZM15.63,23l7.77-6.67v8.12ZM23.4,8.52v6.27l-9.29,8-6-1.12ZM7.76,22.8l6.05,1.12,3.78,8.92-3.54,4.78Zm7.33,15.44,3.47-4.7H29.42l3.49,4.7ZM34,37.65l-3.58-4.81,3.77-8.92,6.09-1.13Z"/></svg>