<svg id="Calque_1" data-name="Calque 1" xmlns="http://www.w3.org/2000/svg" viewBox="0 0 48 48"><defs><style>.cls-1{fill:#5b6870;}</style></defs><title>pict-deplacement</title><path class="cls-1" d="M39.3,24.23a.55.55,0,0,0,0-.46.53.53,0,0,0-.13-.2h0l-4.43-4.35a.59.59,0,0,0-.84,0,.6.6,0,0,0,0,.85l3.38,3.32H24.6V10.93L28,14.28a.63.63,0,0,0,.42.17.6.6,0,0,0,.43-.18.61.61,0,0,0,0-.85L24.42,9.07,24.34,9A.34.34,0,0,0,24.23,9a.61.61,0,0,0-.46,0,.34.34,0,0,0-.11.07l-.08.05-4.43,4.35a.61.61,0,0,0,0,.85.6.6,0,0,0,.85,0l3.4-3.35V23.4H10.72l3.38-3.32a.6.6,0,0,0,0-.85.59.59,0,0,0-.84,0L8.83,23.57h0a.53.53,0,0,0-.13.2.55.55,0,0,0,0,.46.43.43,0,0,0,.13.19h0l4.43,4.35a.59.59,0,0,0,.42.17.58.58,0,0,0,.42-.18.6.6,0,0,0,0-.85L10.72,24.6H23.4V37.07L20,33.72a.6.6,0,1,0-.84.86l4.42,4.34h0l.06,0a.57.57,0,0,0,.13.08.55.55,0,0,0,.46,0,.57.57,0,0,0,.13-.08l.06,0h0l4.42-4.34a.6.6,0,1,0-.84-.86l-3.4,3.35V24.6H37.28L33.9,27.92a.6.6,0,0,0,0,.85.58.58,0,0,0,.42.18.59.59,0,0,0,.42-.17l4.43-4.35h0A.5.5,0,0,0,39.3,24.23Z"/></svg>