<svg id="Calque_1" data-name="Calque 1" xmlns="http://www.w3.org/2000/svg" viewBox="0 0 48 48"><defs><style>.cls-1{fill:#5b6870;}</style></defs><title>pict-guide</title><path class="cls-1" d="M35.91,6.36H14.71a4.53,4.53,0,0,0-4.52,4.53V34.44A4.53,4.53,0,0,0,14.71,39h21.2a.6.6,0,0,0,.6-.6V7A.6.6,0,0,0,35.91,6.36Zm-5.83,1.2v8.18L27.36,13.8a.63.63,0,0,0-.35-.11.66.66,0,0,0-.35.11L24,15.74V7.56ZM11.39,10.89a3.33,3.33,0,0,1,3.32-3.33h8V16.9a.6.6,0,0,0,.32.54.62.62,0,0,0,.63-.05L27,15l3.32,2.36a.54.54,0,0,0,.35.11.66.66,0,0,0,.27-.06.6.6,0,0,0,.33-.54V7.56h4V29.91H14.71a4.52,4.52,0,0,0-3.32,1.48Zm3.32,26.87a3.33,3.33,0,0,1,0-6.65h20.6v6.65Z"/></svg>