<svg id="Calque_1" data-name="Calque 1" xmlns="http://www.w3.org/2000/svg" viewBox="0 0 48 48"><defs><style>.cls-1{fill:#5b6870;}</style></defs><title>pict-import</title><path class="cls-1" d="M37.65,27.3a.6.6,0,0,0-.6.6V32a2.3,2.3,0,0,1-2.43,2.13H13.38A2.3,2.3,0,0,1,11,32V27.9a.6.6,0,0,0-1.2,0V32a3.5,3.5,0,0,0,3.63,3.33H34.62A3.5,3.5,0,0,0,38.25,32V27.9A.6.6,0,0,0,37.65,27.3Z"/><path class="cls-1" d="M23.6,27a.53.53,0,0,0,.1.06l.08.05a.51.51,0,0,0,.44,0L24.3,27a.53.53,0,0,0,.1-.06l6.07-5.46a.59.59,0,0,0,0-.85.6.6,0,0,0-.84,0L24.6,25.19V7.42a.6.6,0,0,0-1.2,0V25.19l-5.07-4.56a.6.6,0,0,0-.84,0,.59.59,0,0,0,0,.85Z"/></svg>