<svg id="Calque_1" data-name="Calque 1" xmlns="http://www.w3.org/2000/svg" viewBox="0 0 48 48"><defs><style>.cls-1{fill:#5b6870;}</style></defs><title>pict-utilisateurs</title><path class="cls-1" d="M24.59,23.27a4.88,4.88,0,1,0-4.88-4.88A4.88,4.88,0,0,0,24.59,23.27Zm0-8.55a3.68,3.68,0,1,1-3.68,3.67A3.68,3.68,0,0,1,24.59,14.72Z"/><path class="cls-1" d="M32.19,26.94a17,17,0,0,0-7.6-2,17,17,0,0,0-7.61,2,4.17,4.17,0,0,0-2.25,3.71v.65a1.93,1.93,0,0,0,1.92,1.94H32.52a1.94,1.94,0,0,0,1.93-1.94v-.65A4.18,4.18,0,0,0,32.19,26.94Zm1.06,4.36a.74.74,0,0,1-.73.74H16.65a.73.73,0,0,1-.72-.74v-.65A3,3,0,0,1,17.53,28a15.74,15.74,0,0,1,7.06-1.89A15.69,15.69,0,0,1,31.64,28a3,3,0,0,1,1.61,2.64Z"/><path class="cls-1" d="M24.59,6.4a17,17,0,1,0,17,17A17,17,0,0,0,24.59,6.4Zm0,32.76A15.78,15.78,0,1,1,40.37,23.38,15.8,15.8,0,0,1,24.59,39.16Z"/></svg>