<svg id="Calque_1" data-name="Calque 1" xmlns="http://www.w3.org/2000/svg" viewBox="0 0 48 48"><defs><style>.cls-1{fill:#5b6870;}</style></defs><title>pict-param</title><path class="cls-1" d="M10.74,37.44a.6.6,0,0,1-.6-.6V25.23a.6.6,0,0,1,.6-.6.6.6,0,0,1,.6.6V36.84A.6.6,0,0,1,10.74,37.44Z"/><path class="cls-1" d="M10.74,19.2a.6.6,0,0,1-.6-.6V7a.59.59,0,0,1,.6-.6.6.6,0,0,1,.6.6V18.6A.6.6,0,0,1,10.74,19.2Z"/><path class="cls-1" d="M24,37.44a.6.6,0,0,1-.6-.6V21.92a.6.6,0,0,1,1.2,0V36.84A.6.6,0,0,1,24,37.44Z"/><path class="cls-1" d="M24,15.89a.6.6,0,0,1-.6-.6V7a.6.6,0,0,1,1.2,0v8.29A.6.6,0,0,1,24,15.89Z"/><path class="cls-1" d="M37.26,37.44a.6.6,0,0,1-.6-.6V28.55a.6.6,0,0,1,.6-.6.6.6,0,0,1,.6.6v8.29A.6.6,0,0,1,37.26,37.44Z"/><path class="cls-1" d="M37.26,22.52a.6.6,0,0,1-.6-.6V7a.6.6,0,0,1,.6-.6.59.59,0,0,1,.6.6V21.92A.6.6,0,0,1,37.26,22.52Z"/><path class="cls-1" d="M15.71,25.83h-10a.6.6,0,0,1-.6-.6.6.6,0,0,1,.6-.6h10a.6.6,0,0,1,.6.6A.6.6,0,0,1,15.71,25.83Z"/><path class="cls-1" d="M29,15.89H19a.6.6,0,0,1-.6-.6.59.59,0,0,1,.6-.6H29a.59.59,0,0,1,.6.6A.6.6,0,0,1,29,15.89Z"/><path class="cls-1" d="M42.24,29.15h-10a.6.6,0,0,1,0-1.2h10a.6.6,0,1,1,0,1.2Z"/></svg>