<svg id="Calque_1" data-name="Calque 1" xmlns="http://www.w3.org/2000/svg" viewBox="0 0 48 48"><defs><style>.cls-1{fill:#5b6870;}</style></defs><title>pict-enregistrer</title><path class="cls-1" d="M38,15.23,30.45,6.89a.57.57,0,0,0-.44-.2H13.49a3.79,3.79,0,0,0-3.61,3.94V34a3.79,3.79,0,0,0,3.61,3.94h21A3.79,3.79,0,0,0,38.12,34V15.63A.61.61,0,0,0,38,15.23Zm-7,21.5H17.09V24.58H30.91Zm6-2.74a2.59,2.59,0,0,1-2.41,2.74h-2.4V24a.6.6,0,0,0-.6-.6h-15a.6.6,0,0,0-.6.6V36.73h-2.4A2.59,2.59,0,0,1,11.08,34V10.63a2.59,2.59,0,0,1,2.41-2.74h2.4v7.74a.6.6,0,0,0,.6.61h12a.61.61,0,0,0,0-1.21H17.09V7.89H29.74l7.18,8Z"/></svg>