<?xml version="1.0" encoding="windows-1252"?>
<!-- Generator: Adobe Illustrator 19.0.0, SVG Export Plug-In . SVG Version: 6.00 Build 0)  -->
<svg version="1.1" id="Layer_1" xmlns="http://www.w3.org/2000/svg" xmlns:xlink="http://www.w3.org/1999/xlink" x="0px" y="0px" viewBox="0 0 488 488" style="enable-background:new 0 0 488 488;" xml:space="preserve">
<g>
	<g>
		<path d="M487.8,183.1L487.8,183.1c0-0.2,0-0.4,0-0.6c0-0.1,0-0.3,0-0.4c0-0.2-0.1-0.4-0.1-0.6c0-0.1,0-0.2-0.1-0.4    c0-0.2-0.1-0.4-0.1-0.6c0-0.1-0.1-0.2-0.1-0.4c-0.1-0.2-0.1-0.4-0.2-0.6c0-0.1,0-0.1-0.1-0.2l-37.908-91.5v-0.1L415.485,6.2    c-1.5-3.7-5.201-6.2-9.202-6.2c-4.101,0-7.702,2.5-9.202,6.2l-33.407,81.4c0,0,0,0,0,0.1l-37.508,91.5c0,0.1,0,0.1-0.1,0.2    c-0.1,0.2-0.1,0.4-0.2,0.6c0,0.1-0.1,0.2-0.1,0.4c-0.1,0.2-0.1,0.4-0.1,0.6c0,0.1-0.1,0.3-0.1,0.4c0,0.2-0.1,0.4-0.1,0.6    c0,0.1,0,0.3,0,0.4c0,0.2,0,0.4,0,0.5s0,0.2,0,0.2v57.6c-4.201-2.9-8.602-5.7-13.103-8.3c-64.313-38.5-144.13-38.5-208.443,0    c-48.41,29-82.917,76.4-96.92,130.3c-0.2,0.5-0.3,1.1-0.4,1.6C2.3,381.4,0,399.1,0,417c0,2.7,1.1,5.2,2.901,7.1    c1.9,1.9,4.401,2.9,7.102,2.9l198.141-0.8h117.324v21.3c0,3.1,1.5,6.1,4.001,8l40.408,30.5c1.7,1.3,3.901,2,6.001,2h71.615    c2.701,0,5.201-1.1,7.101-2.9l30.506-30.5c1.9-1.9,2.901-4.4,2.901-7.1V183.3C487.8,183.3,487.8,183.2,487.8,183.1z M406.183,36.6    l18.804,45.3h-37.308L406.183,36.6z M345.271,203.4l20.404,15.4v58.8c-6.301-7.4-13.103-14.5-20.404-21V203.4z M113.923,249.8    c29.006-17.4,61.513-26.1,93.919-26.1c32.507,0,65.013,8.7,93.919,26.1c0,0,0.1,0,0.1,0.1c40.608,23.5,70.414,61.8,84.717,106.4    H293.46c-3.101-25-17.604-47.6-39.408-60.4c-0.1,0-0.2-0.1-0.2-0.1c-25.805-14.3-57.112-14.2-81.517,0.1    c-22.205,13-36.407,35.1-39.408,60.4H29.506C44.009,312.3,73.615,274,113.923,249.8z M273.356,356.3L273.356,356.3l-120.225,0    c2.801-18.2,13.103-33.6,29.406-43.1c18.404-10.8,42.009-10.7,61.613,0.1C259.753,322.4,270.455,338.4,273.356,356.3z     M365.675,458.3l-20.404-15.4v-16.3h20.404V458.3z M207.843,406.6l-187.839,0.7c0.5-10.5,1.9-20.9,4.101-31H391.98    c2.1,9.9,3.401,20,3.901,30.3H207.843z M426.687,468.4h-41.008v-41.8h20.504c5.501,0,10.002-4.5,10.002-10    c0-17.7-2.2-35.1-6.301-51.9c-0.1-0.6-0.2-1.2-0.4-1.7c-5.201-20.3-13.203-39.6-23.805-57.3c0-0.1,0-0.2,0-0.3v-87.3l20.504-20.5    l20.504,20.5V468.4z M413.185,176.2c-3.901-3.9-10.202-3.9-14.103,0l-24.305,24.3l-27.306-20.6l32.007-78.1h53.811l32.307,78.1    l-28.006,20.7L413.185,176.2z M467.796,443.6l-21.204,21.2v-246l21.204-15.7V443.6z"/>
	</g>
</g>
<g>
</g>
<g>
</g>
<g>
</g>
<g>
</g>
<g>
</g>
<g>
</g>
<g>
</g>
<g>
</g>
<g>
</g>
<g>
</g>
<g>
</g>
<g>
</g>
<g>
</g>
<g>
</g>
<g>
</g>
</svg>