<?xml version="1.0" encoding="UTF-8" standalone="no"?>
<!DOCTYPE svg PUBLIC "-//W3C//DTD SVG 20010904//EN" "http://www.w3.org/TR/2001/REC-SVG-20010904/DTD/svg10.dtd">
<svg version="1.0" xmlns="http://www.w3.org/2000/svg" width="1280.000000pt" height="1280.000000pt" viewBox="0 0 1280.000000 1280.000000" preserveAspectRatio="xMidYMid meet">
<metadata>
Created by potrace 1.15, written by Peter Selinger 2001-2017
</metadata>
<g transform="translate(0.000000,1280.000000) scale(0.100000,-0.100000)" fill="#000000" stroke="none">
<path d="M3297 12790 c-105 -27 -197 -105 -245 -208 l-27 -57 -3 -517 -3 -518 -22 0 c-33 0 -241 -57 -337 -92 -577 -210 -1051 -683 -1259 -1258 -35 -97 -91 -304 -91 -337 l0 -22 -518 -3 -517 -3 -67 -33 c-159 -78 -238 -244 -194 -407 28 -107 87 -180 184 -227 l67 -33 502 -3 503 -3 0 -149 0 -150 -482 0 c-535 0 -538 -1 -635 -65 -228 -151 -190 -497 67 -619 44 -20 59 -21 548 -24 l502 -3 0 -149 0 -149 -502 -3 -503 -3 -57 -27 c-73 -34 -142 -104 -176 -176 -22 -48 -27 -71 -26 -142 0 -72 4 -94 28 -147 35 -76 103 -144 184 -181 l57 -27 497 -3 498 -3 0 -144 0 -144 -492 -3 c-487 -3 -494 -4 -550 -26 -80 -32 -150 -99 -190 -180 -30 -60 -33 -75 -33 -152 1 -70 5 -95 27 -142 35 -75 94 -138 165 -174 l58 -29 507 -3 508 -3 0 -149 0 -149 -497 -3 -498 -3 -63 -29 c-122 -56 -212 -193 -212 -319 0 -50 20 -129 44 -176 28 -52 102 -120 164 -149 l57 -27 503 -3 502 -3 0 -149 0 -150 -477 0 c-289 0 -496 -5 -523 -11 -111 -25 -215 -125 -251 -240 -24 -78 -24 -131 1 -210 31 -99 99 -175 200 -223 44 -20 59 -21 548 -24 l502 -3 0 -149 0 -149 -502 -3 -503 -3 -56 -26 c-79 -37 -133 -90 -171 -167 -29 -60 -33 -76 -33 -152 0 -76 4 -93 33 -152 40 -81 110 -148 190 -180 57 -23 61 -23 569 -26 l513 -3 0 -22 c0 -33 56 -241 92 -337 210 -577 683 -1051 1258 -1259 98 -35 304 -91 338 -91 l22 0 0 -478 c0 -301 4 -500 11 -538 21 -116 96 -210 207 -262 48 -23 70 -27 142 -27 70 1 94 5 140 27 77 36 131 86 171 160 l34 63 3 508 3 507 149 0 150 0 0 -477 c0 -523 2 -543 59 -631 58 -91 188 -162 296 -162 59 0 162 34 208 69 48 36 94 94 121 151 20 44 21 59 24 548 l3 502 149 0 149 0 3 -502 3 -503 27 -57 c34 -73 98 -137 174 -173 51 -25 71 -29 144 -29 72 -1 94 4 145 27 78 36 146 104 182 181 l28 61 3 498 3 497 149 0 149 0 3 -508 c3 -500 3 -508 25 -553 36 -74 97 -135 171 -171 60 -30 76 -33 152 -33 76 0 93 4 152 33 81 40 148 110 180 190 22 56 23 63 26 549 l3 493 145 0 144 0 0 -467 c0 -505 3 -541 53 -626 142 -241 496 -230 619 21 l33 67 3 502 3 503 149 0 150 0 0 -480 c0 -467 1 -481 22 -547 18 -57 32 -79 88 -134 57 -58 75 -70 134 -88 81 -25 134 -26 207 -5 103 29 186 104 235 209 18 37 19 77 22 543 l3 502 149 0 149 0 3 -502 3 -503 27 -57 c34 -73 98 -137 174 -173 51 -25 71 -29 144 -29 72 -1 94 4 145 27 78 36 146 104 182 181 l28 61 3 518 3 517 22 0 c33 0 240 56 337 91 575 208 1048 682 1258 1259 36 97 92 304 92 338 l0 22 478 0 c301 0 500 4 538 11 116 21 210 96 262 207 23 48 27 70 27 142 -1 70 -5 94 -27 140 -36 77 -86 131 -160 171 l-63 34 -507 3 -508 3 0 149 0 150 478 0 c526 0 546 2 631 61 67 46 118 114 141 188 25 80 25 132 0 212 -31 99 -99 175 -200 223 -44 20 -59 21 -547 24 l-503 3 0 149 0 149 503 3 502 3 57 27 c73 34 137 98 173 174 25 51 29 71 29 144 1 72 -4 94 -27 145 -36 78 -104 146 -181 182 l-61 28 -497 3 -498 3 0 149 0 149 508 3 c500 3 508 3 553 25 74 36 135 97 171 171 30 60 33 76 33 152 0 76 -4 93 -33 152 -40 81 -110 148 -190 180 -56 22 -63 23 -549 26 l-493 3 0 145 0 144 468 0 c504 0 540 3 625 53 241 142 230 496 -21 619 l-67 33 -502 3 -503 3 0 149 0 150 480 0 c467 0 481 1 547 22 57 18 79 32 134 88 58 57 70 75 88 134 25 80 26 131 6 205 -30 116 -144 226 -255 250 -33 7 -222 11 -525 11 l-475 0 0 150 0 149 503 3 502 3 57 27 c73 34 137 98 173 174 25 51 29 71 29 144 1 72 -4 94 -27 145 -36 78 -104 146 -181 182 l-61 28 -517 3 -518 3 0 22 c0 33 -56 241 -92 337 -210 577 -683 1051 -1258 1259 -97 35 -304 91 -337 91 l-22 0 -3 518 -3 517 -33 67 c-133 270 -503 276 -634 10 l-33 -67 -3 -502 -3 -503 -149 0 -150 0 0 483 c0 529 -1 535 -61 628 -57 89 -186 159 -294 159 -59 0 -162 -34 -208 -69 -48 -36 -94 -94 -121 -151 -20 -44 -21 -59 -24 -547 l-3 -503 -149 0 -149 0 -3 503 -3 502 -27 57 c-34 73 -98 137 -174 173 -51 25 -71 29 -144 29 -72 1 -94 -4 -145 -27 -78 -36 -146 -104 -182 -181 l-28 -61 -3 -497 -3 -498 -147 0 -147 0 0 493 c0 489 0 492 -23 549 -32 80 -99 150 -180 190 -60 30 -75 33 -152 33 -70 -1 -95 -5 -142 -27 -75 -35 -138 -94 -174 -165 l-29 -58 -3 -507 -3 -508 -149 0 -150 0 0 468 c0 504 -3 540 -53 625 -142 241 -496 230 -619 -21 l-33 -67 -3 -502 -3 -503 -149 0 -150 0 0 478 c0 527 -2 543 -62 632 -63 94 -184 160 -292 160 -102 0 -226 -62 -283 -143 -71 -98 -68 -69 -71 -624 l-3 -503 -149 0 -149 0 -3 503 -3 502 -33 67 c-57 115 -166 188 -291 194 -36 2 -83 -1 -104 -6z"/>
</g>
</svg>