<?xml version="1.0" standalone="no"?>
<!DOCTYPE svg PUBLIC "-//W3C//DTD SVG 20010904//EN"
 "http://www.w3.org/TR/2001/REC-SVG-20010904/DTD/svg10.dtd">
<svg version="1.0" xmlns="http://www.w3.org/2000/svg"
 width="1280.000000pt" height="924.000000pt" viewBox="0 0 1280.000000 924.000000"
 preserveAspectRatio="xMidYMid meet">
<metadata>
Created by potrace 1.15, written by Peter Selinger 2001-2017
</metadata>
<g transform="translate(0.000000,924.000000) scale(0.100000,-0.100000)"
fill="#000000" stroke="none">
<path d="M7676 9229 c-491 -63 -924 -416 -1087 -885 -76 -219 -95 -481 -50
-694 57 -268 182 -499 373 -687 134 -133 269 -223 432 -288 475 -192 992 -105
1383 234 213 184 366 451 429 746 8 39 18 124 21 190 15 319 -79 617 -277 875
-286 372 -758 568 -1224 509z"/>
<path d="M4370 9196 c-275 -51 -515 -173 -711 -363 -359 -348 -493 -849 -354
-1328 101 -348 370 -667 692 -820 196 -94 325 -125 543 -132 193 -6 295 8 457
62 589 197 973 775 914 1378 -57 580 -456 1040 -1026 1184 -125 31 -393 41
-515 19z"/>
<path d="M6104 6819 c-42 -45 -208 -180 -289 -237 -380 -264 -747 -382 -1190
-383 -369 0 -717 80 -1144 263 -63 26 -118 47 -123 46 -7 -3 -518 -835 -521
-851 -1 -4 61 -42 138 -83 486 -262 711 -510 807 -891 23 -87 23 -93 22 -798
-1 -796 -20 -3136 -30 -3578 l-6 -288 1138 7 c627 3 1143 10 1147 14 23 21 49
271 87 850 41 617 62 810 89 810 28 0 62 -237 121 -840 54 -558 78 -739 107
-811 l14 -36 892 -6 c491 -4 1082 -7 1315 -7 l422 0 -5 73 c-41 539 -109 835
-396 1722 -165 510 -165 509 -208 660 -109 381 -169 692 -193 1003 -16 211
-35 171 234 490 139 166 174 245 214 490 74 462 160 685 351 904 75 87 165
164 280 241 51 34 92 65 93 69 0 9 -479 829 -495 846 -10 11 -32 3 -126 -47
-897 -474 -1756 -367 -2615 326 -50 40 -93 73 -96 73 -2 0 -17 -14 -34 -31z"/>
<path d="M10165 4979 c-248 -28 -512 -160 -686 -346 -193 -206 -309 -495 -309
-770 0 -152 50 -364 118 -498 100 -199 283 -387 482 -494 148 -79 355 -131
525 -131 156 0 364 49 497 116 155 78 349 249 437 384 81 125 145 281 172 422
19 95 16 327 -5 423 -107 488 -495 841 -984 894 -114 12 -132 12 -247 0z"/>
<path d="M1845 4950 c-277 -37 -549 -187 -720 -400 -173 -213 -255 -443 -255
-713 0 -313 108 -575 330 -797 433 -433 1139 -435 1574 -4 98 96 161 185 222
309 76 154 105 273 111 450 6 155 -9 261 -53 393 -93 278 -298 517 -557 648
-195 99 -439 142 -652 114z"/>
<path d="M1055 2697 c-2 -7 -18 -82 -35 -167 -97 -484 -257 -977 -475 -1465
-76 -169 -326 -662 -449 -884 -53 -96 -96 -176 -96 -178 0 -2 825 -3 1833 -3
l1833 0 -195 388 c-310 618 -453 950 -562 1302 -98 315 -145 569 -156 843 -3
86 -7 157 -8 157 -2 0 -36 -15 -76 -34 -107 -48 -281 -111 -379 -136 -371 -96
-683 -57 -1118 138 -75 34 -114 47 -117 39z"/>
<path d="M9384 1993 c3 -362 9 -950 12 -1307 l7 -648 171 6 c94 3 368 9 609
12 l437 7 -1 186 c-1 102 -4 332 -8 511 -4 179 -6 326 -5 328 1 2 183 -243
405 -544 l402 -546 306 6 c168 3 481 9 694 12 213 4 386 10 385 14 -2 4 -369
584 -817 1289 -716 1129 -816 1282 -835 1278 -12 -3 -91 -23 -176 -45 -290
-75 -484 -97 -760 -89 -291 9 -549 64 -784 166 l-48 21 6 -657z"/>
</g>
</svg>
