<svg id="Calque_1" data-name="Calque 1" xmlns="http://www.w3.org/2000/svg" xmlns:xlink="http://www.w3.org/1999/xlink" viewBox="0 0 48 48"><defs><style>.cls-1{fill:none;clip-rule:evenodd;}.cls-2{clip-path:url(#clip-path);}.cls-3{fill:#5b6870;}</style><clipPath id="clip-path"><path class="cls-1" d="M115.5-31.12c4.7,0,8.52-3.06,8.52-7.69s-7.74-15.37-8.52-15.37S107-43.44,107-38.81,110.79-31.12,115.5-31.12Z"/></clipPath></defs><title>img-energie</title><path class="cls-3" d="M39.39,20.45a.59.59,0,0,0-.54-.35H24.68L26.25,7.57A.61.61,0,0,0,25.89,7a.59.59,0,0,0-.7.17L8.69,26.92a.58.58,0,0,0-.08.63.59.59,0,0,0,.54.35H23.32L21.75,40.43a.61.61,0,0,0,.36.62.69.69,0,0,0,.24.05.61.61,0,0,0,.46-.22l16.5-19.8A.58.58,0,0,0,39.39,20.45ZM23.2,38.54l1.4-11.17a.62.62,0,0,0-.15-.47.59.59,0,0,0-.45-.2H10.43L24.8,9.46,23.4,20.63a.62.62,0,0,0,.15.47.59.59,0,0,0,.45.2H37.57Z"/></svg>