<svg id="Calque_1" data-name="Calque 1" xmlns="http://www.w3.org/2000/svg" xmlns:xlink="http://www.w3.org/1999/xlink" viewBox="0 0 48 48"><defs><style>.cls-1{fill:none;clip-rule:evenodd;}.cls-2{clip-path:url(#clip-path);}.cls-3{fill:#5b6870;}</style><clipPath id="clip-path"><path class="cls-1" d="M115.5,97.82c4.7,0,8.52-3,8.52-7.68s-7.74-15.38-8.52-15.38S107,85.5,107,90.14,110.79,97.82,115.5,97.82Z"/></clipPath></defs><title>img-evol-climat</title><path class="cls-3" d="M28.65,28V10.84a4.65,4.65,0,0,0-9.3,0V28a7.33,7.33,0,0,0-2.9,8.32A7.81,7.81,0,0,0,24,41.63a7.81,7.81,0,0,0,7.55-5.36A7.33,7.33,0,0,0,28.65,28Zm1.76,8A6.63,6.63,0,0,1,24,40.43a6.63,6.63,0,0,1-6.41-4.53,6.17,6.17,0,0,1,2.68-7.12.61.61,0,0,0,.28-.51V10.84a3.45,3.45,0,0,1,6.9,0V28.27a.61.61,0,0,0,.28.51A6.17,6.17,0,0,1,30.41,35.9Z"/></svg>