<?xml version="1.0" encoding="iso-8859-1"?>
<!-- Generator: Adobe Illustrator 19.0.0, SVG Export Plug-In . SVG Version: 6.00 Build 0)  -->
<svg version="1.1" id="Layer_1" xmlns="http://www.w3.org/2000/svg" xmlns:xlink="http://www.w3.org/1999/xlink" x="0px" y="0px"
	 viewBox="0 0 512 512" style="enable-background:new 0 0 512 512;" xml:space="preserve">
<g>
	<g>
		<g>
			<path d="M428.623,101.974c-5.579-1.335-11.173,2.099-12.508,7.671l-3.627,15.134c-1.335,5.572,2.099,11.173,7.671,12.508
				c0.813,0.195,1.626,0.287,2.427,0.287c4.689,0,8.94-3.2,10.081-7.959l3.627-15.134
				C437.629,108.91,434.195,103.311,428.623,101.974z"/>
			<path d="M457.711,151.578l-10.807-3.205c-5.491-1.628-11.267,1.503-12.897,6.997c-1.628,5.494,1.504,11.267,6.998,12.896
				l10.807,3.205c0.984,0.293,1.976,0.432,2.954,0.432c4.475,0,8.606-2.918,9.942-7.428
				C466.337,158.98,463.205,153.206,457.711,151.578z"/>
			<path d="M82.105,154.15c-1.628-5.495-7.406-8.628-12.896-6.997l-14.92,4.425c-5.493,1.628-8.626,7.402-6.997,12.896
				c1.336,4.51,5.468,7.428,9.942,7.428c0.976,0,1.969-0.14,2.954-0.432l14.92-4.425C80.6,165.418,83.734,159.643,82.105,154.15z"/>
			<path d="M311.838,168.266l10.807,3.205c0.984,0.293,1.976,0.432,2.954,0.432c4.475,0,8.606-2.918,9.942-7.428
				c1.629-5.494-1.503-11.267-6.997-12.896l-10.807-3.205c-5.492-1.628-11.267,1.503-12.897,6.997
				C303.212,160.863,306.344,166.638,311.838,168.266z"/>
			<path d="M290.992,137.287c0.813,0.195,1.626,0.287,2.427,0.287c4.689,0,8.94-3.2,10.081-7.959l3.627-15.134
				c1.335-5.572-2.099-11.173-7.671-12.508c-5.582-1.335-11.173,2.099-12.508,7.671l-3.627,15.134
				C281.986,130.352,285.42,135.951,290.992,137.287z"/>
			<path d="M186.401,171.902c0.976,0,1.969-0.14,2.954-0.432l14.92-4.425c5.493-1.628,8.626-7.402,6.997-12.896
				c-1.628-5.495-7.405-8.628-12.896-6.997l-14.92,4.425c-5.493,1.628-8.626,7.402-6.997,12.896
				C177.795,168.984,181.927,171.902,186.401,171.902z"/>
			<path d="M512,168.73c0-23.008-13.57-43.925-33.918-53.644c1.756-22.481-9.573-44.692-29.499-56.196
				c-19.926-11.504-44.826-10.211-63.416,2.55c-18.592-12.762-43.49-14.056-63.416-2.55c-0.393,0.227-0.769,0.475-1.155,0.71
				c-0.391-0.239-0.781-0.48-1.18-0.71C299.49,47.387,274.592,48.68,256,61.441c-18.591-12.762-43.489-14.056-63.416-2.55
				c-0.398,0.23-0.787,0.471-1.179,0.71c-0.386-0.235-0.763-0.483-1.156-0.71c-19.925-11.504-44.826-10.211-63.416,2.55
				c-18.591-12.762-43.49-14.056-63.416-2.55c-19.925,11.504-31.255,33.714-29.499,56.196C13.57,124.805,0,145.722,0,168.73
				s13.57,43.925,33.918,53.644c-1.756,22.481,9.573,44.692,29.499,56.195c9.209,5.316,19.479,7.893,29.698,7.873v108.845
				c-1.67-0.634-3.314-1.305-5.001-1.996c-9.193-3.768-19.614-8.037-39.38-8.037c-5.729,0-10.375,4.646-10.375,10.375v54.987
				c0,5.729,4.646,10.375,10.375,10.375h425.37c5.729,0,10.375-4.646,10.375-10.375V395.63c0-5.729-4.646-10.375-10.375-10.375
				c-19.768,0-30.19,4.269-39.384,8.037c-5.024,2.058-9.656,3.946-15.834,5.148V286.449c0.036,0,0.073,0.002,0.109,0.002
				c10.183,0,20.414-2.583,29.589-7.882c19.925-11.504,31.255-33.714,29.499-56.195C498.43,212.656,512,191.739,512,168.73z
				 M184.692,119.317c-3.957-16.506,3.553-33.966,18.264-42.459c14.712-8.492,33.587-6.266,45.905,5.414
				c4.002,3.795,10.275,3.795,14.278,0c12.316-11.678,31.192-13.903,45.903-5.412s22.221,25.953,18.264,42.459
				c-1.285,5.364,1.851,10.796,7.139,12.365c16.273,4.826,27.639,20.061,27.639,37.047c0,16.986-11.366,32.22-27.64,37.047
				c-5.288,1.569-8.424,7.001-7.139,12.365c3.957,16.506-3.553,33.966-18.264,42.459c-5.992,3.459-12.674,5.127-19.323,5.115
				v-29.142l23.892-23.892c4.051-4.051,4.051-10.621,0-14.673c-4.052-4.05-10.62-4.05-14.673,0l-19.595,19.595l-14.321-14.321
				c-1.946-1.945-4.585-3.039-7.336-3.039h-46.687c-4.197,0-7.979,2.528-9.585,6.404c-1.605,3.877-0.717,8.339,2.249,11.307
				l18.619,18.619v29.141c-6.649,0.012-13.332-1.656-19.323-5.115c-14.711-8.493-22.221-25.953-18.264-42.459
				c1.285-5.364-1.851-10.796-7.139-12.365c-16.274-4.826-27.64-20.061-27.64-37.047c0-16.986,11.366-32.22,27.64-37.047
				C182.842,130.113,185.978,124.681,184.692,119.317z M351.449,286.443v100.444c-5.307-0.995-11.526-1.633-19.144-1.633
				c-19.766,0-30.187,4.269-39.381,8.037c-1.081,0.443-2.142,0.878-3.206,1.3V286.449c0.036,0,0.073,0.002,0.109,0.002
				c10.183,0,20.414-2.583,29.589-7.882c0.398-0.23,0.787-0.471,1.179-0.71c0.386,0.235,0.763,0.483,1.156,0.71
				C330.96,283.885,341.23,286.463,351.449,286.443z M239.993,224.941l-3.947-3.947h17.342l15.581,15.581v162.933
				c-2.299,0.173-4.793,0.271-7.558,0.271c-7.802,0-13.537-0.745-18.379-1.922v-165.58
				C243.031,229.525,241.938,226.887,239.993,224.941z M222.282,286.443v103.875c-7.673-2.735-17.167-5.065-31.765-5.065
				c-13.476,0-22.605,1.986-29.966,4.443V286.449c0.036,0,0.073,0.002,0.109,0.002c10.183,0,20.414-2.583,29.589-7.882
				c0.393-0.227,0.769-0.475,1.155-0.71c0.391,0.239,0.781,0.48,1.18,0.71C201.791,283.885,212.062,286.463,222.282,286.443z
				 M73.791,260.601c-14.711-8.493-22.221-25.953-18.264-42.459c1.285-5.364-1.851-10.796-7.139-12.365
				c-16.273-4.826-27.639-20.061-27.639-37.047c0-16.986,11.366-32.22,27.64-37.047c5.288-1.569,8.424-7.001,7.139-12.365
				c-3.957-16.506,3.553-33.966,18.264-42.459c14.71-8.495,33.586-6.268,45.903,5.412c4.002,3.795,10.275,3.795,14.278,0
				c10.991-10.421,27.203-13.308,41.019-7.775c-8.665,11.512-13.046,25.992-11.906,40.59c-20.347,9.719-33.918,30.636-33.918,53.644
				s13.57,43.925,33.918,53.644c-1.14,14.597,3.241,29.077,11.905,40.589c-4.64,1.857-9.547,2.762-14.439,2.753v-6.465
				c0-3.705-1.976-7.13-5.184-8.983l-45.504-26.291l-20.695-20.695c-4.052-4.05-10.62-4.05-14.673,0
				c-4.051,4.051-4.051,10.621,0,14.673l18.619,18.619v29.141C86.465,265.728,79.783,264.06,73.791,260.601z M139.801,265.239
				V397.39c-5.22,1.443-11.386,2.388-20.175,2.388c-2.059,0-3.968-0.055-5.762-0.153V250.253L139.801,265.239z M442.587,412.492
				c6.366-2.609,12.082-4.95,21.142-5.96v33.709H59.109v-33.709c9.058,1.011,14.773,3.351,21.137,5.959
				c9.193,3.768,19.614,8.037,39.381,8.037c19.766,0,30.186-4.269,39.379-8.037c8.495-3.481,15.832-6.487,31.512-6.487
				s23.018,3.006,31.513,6.487c9.194,3.768,19.614,8.037,39.381,8.037c19.767,0,30.188-4.269,39.382-8.037
				c8.495-3.481,15.833-6.487,31.513-6.487c15.682,0,23.02,3.006,31.517,6.487c9.193,3.768,19.615,8.037,39.383,8.037
				C422.971,420.529,433.393,416.259,442.587,412.492z M372.199,393.5V265.24l25.937-14.985V399.66
				C386.117,399.092,379.512,396.494,372.199,393.5z M463.611,205.777c-5.288,1.569-8.424,7.001-7.139,12.365
				c3.957,16.506-3.553,33.966-18.264,42.459c-5.993,3.459-12.674,5.127-19.323,5.115v-29.141l23.892-23.892
				c4.051-4.051,4.051-10.621,0-14.673c-4.052-4.05-10.62-4.05-14.673,0l-19.595,19.595l-14.321-14.321
				c-4.052-4.05-10.62-4.05-14.673,0c-4.051,4.051-4.051,10.621,0,14.673l12.1,12.1l-34.984,20.212
				c-3.208,1.853-5.184,5.278-5.184,8.983v6.465c-4.892,0.009-9.799-0.894-14.44-2.753c8.664-11.512,13.046-25.991,11.905-40.589
				c20.351-9.719,33.922-30.636,33.922-53.644s-13.57-43.925-33.918-53.644c1.141-14.597-3.241-29.078-11.906-40.59
				c13.816-5.534,30.027-2.648,41.019,7.776c4.002,3.795,10.275,3.795,14.278,0c12.316-11.678,31.193-13.903,45.903-5.412
				c14.711,8.493,22.221,25.953,18.264,42.459c-1.285,5.364,1.851,10.796,7.139,12.365c16.274,4.826,27.64,20.061,27.64,37.047
				C491.251,185.717,479.885,200.951,463.611,205.777z"/>
		</g>
	</g>
</g>
<g>
</g>
<g>
</g>
<g>
</g>
<g>
</g>
<g>
</g>
<g>
</g>
<g>
</g>
<g>
</g>
<g>
</g>
<g>
</g>
<g>
</g>
<g>
</g>
<g>
</g>
<g>
</g>
<g>
</g>
</svg>
