<svg id="Calque_1" data-name="Calque 1" xmlns="http://www.w3.org/2000/svg" xmlns:xlink="http://www.w3.org/1999/xlink" viewBox="0 0 48 48"><defs><style>.cls-1{fill:none;clip-rule:evenodd;}.cls-2{clip-path:url(#clip-path);}.cls-3{fill:#5b6870;}</style><clipPath id="clip-path"><path class="cls-1" d="M115.5-103.41c4.7,0,8.52-3,8.52-7.68s-7.74-15.38-8.52-15.38S107-115.73,107-111.09,110.79-103.41,115.5-103.41Z"/></clipPath></defs><title>img-ecosystemes</title><path class="cls-3" d="M39,22.53c-3.48-3.83-8.12-6-11.29-5.65A5.08,5.08,0,0,0,26.25,9V9a3.58,3.58,0,0,1,3.53-3.63.55.55,0,1,0,0-1.1,4.67,4.67,0,0,0-4.59,4.34,4.51,4.51,0,0,0-2.38,0,4.67,4.67,0,0,0-4.59-4.34.55.55,0,1,0,0,1.1A3.58,3.58,0,0,1,21.75,9V9A5.08,5.08,0,0,0,20.3,16.9c-3.18-.39-7.83,1.82-11.33,5.67C6.24,25.9,4.81,29.85,5.32,32.63A3.74,3.74,0,0,0,7,35.3,4.13,4.13,0,0,0,9.53,36a12.4,12.4,0,0,0,6.69-2.63c1.37,3.93,4.14,6.81,7.23,7.12v2.63a.55.55,0,0,0,1.1,0V40.53c3.1-.31,5.87-3.2,7.24-7.14A12.31,12.31,0,0,0,38.48,36a4,4,0,0,0,2.45-.72,3.78,3.78,0,0,0,1.76-2.71C43.19,29.83,41.75,25.88,39,22.53Zm-7.81,9a23.42,23.42,0,0,1-2.26-2.12l-.11-.12c-2.64-3.22-4.07-6.76-3.66-9a2.55,2.55,0,0,1,.73-1.44c3.57.86,5.71,4.18,5.71,9.12A15.85,15.85,0,0,1,31.2,31.56ZM24,9.57a4,4,0,1,1-3.87,4A3.94,3.94,0,0,1,24,9.57ZM22.83,20.31c.41,2.26-1,5.8-3.64,9a24,24,0,0,1-2.38,2.27A15.55,15.55,0,0,1,16.39,28c0-4.93,2.14-8.25,5.69-9.11A2.5,2.5,0,0,1,22.83,20.31ZM7.62,34.38a2.67,2.67,0,0,1-1.22-2c-.46-2.47.88-6.06,3.4-9.14C13.38,19.35,17.27,18,19.51,18a4.54,4.54,0,0,1,1.27.17C17.36,19.47,15.29,23,15.29,28a16.32,16.32,0,0,0,.59,4.35C12.62,34.71,9.32,35.64,7.62,34.38ZM24,39.47c-2.66,0-5.54-2.69-6.87-6.75A23.31,23.31,0,0,0,20,30c2.88-3.52,4.37-7.32,3.89-9.93a3.89,3.89,0,0,0-.56-1.45c.21,0,.43,0,.65,0s.43,0,.64,0a4,4,0,0,0-.55,1.44c-.48,2.6,1,6.41,3.91,10l.14.14a25.46,25.46,0,0,0,2.73,2.52C29.55,36.78,26.66,39.47,24,39.47Zm17.6-7.06a2.68,2.68,0,0,1-1.27,2c-1.68,1.24-4.93.32-8.2-2.11A16.5,16.5,0,0,0,32.71,28c0-4.95-2.08-8.52-5.51-9.86a4.62,4.62,0,0,1,1.29-.18c2.24,0,6.12,1.4,9.69,5.32C40.71,26.34,42.06,29.94,41.6,32.41Z"/></svg>