<svg id="Calque_1" data-name="Calque 1" xmlns="http://www.w3.org/2000/svg" xmlns:xlink="http://www.w3.org/1999/xlink" viewBox="0 0 48 48"><defs><style>.cls-1{fill:none;clip-rule:evenodd;}.cls-2{clip-path:url(#clip-path);}.cls-3{fill:#5b6870;}</style><clipPath id="clip-path"><path class="cls-1" d="M115.5-166.9c4.7,0,8.52-3.06,8.52-7.69S116.28-190,115.5-190,107-179.22,107-174.59,110.79-166.9,115.5-166.9Z"/></clipPath></defs><title>img-forets</title><path class="cls-3" d="M38.89,35.43a44.21,44.21,0,0,1-7.69-8.68h6.06l-1.45-1.08a37.19,37.19,0,0,1-7.63-8h6l-1.46-1.09a31.51,31.51,0,0,1-8.16-9.46l-.53-1-.53,1a31.46,31.46,0,0,1-8.16,9.46l-1.46,1.09h6a37.19,37.19,0,0,1-7.63,8l-1.45,1.08H16.8a44.21,44.21,0,0,1-7.69,8.68L7.87,36.49h12a.6.6,0,1,0,0-1.2H11.08a44.13,44.13,0,0,0,7.34-8.84l.54-.9H14.27a37.78,37.78,0,0,0,7.19-8.13l.57-.91H17.39A32.92,32.92,0,0,0,24,8.65a32.92,32.92,0,0,0,6.61,7.86H26l.57.91a37.78,37.78,0,0,0,7.19,8.13H29l.54.9a44.13,44.13,0,0,0,7.34,8.84H26.67v5.27a.6.6,0,1,0,1.2,0V36.49H40.13Z"/></svg>