<?xml version="1.0" encoding="UTF-8" standalone="no"?>
<!DOCTYPE svg PUBLIC "-//W3C//DTD SVG 20010904//EN" "http://www.w3.org/TR/2001/REC-SVG-20010904/DTD/svg10.dtd">
<svg version="1.0" xmlns="http://www.w3.org/2000/svg" width="1280.000000pt" height="1122.000000pt" viewBox="0 0 1280.000000 1122.000000" preserveAspectRatio="xMidYMid meet">
<metadata>
Created by potrace 1.15, written by Peter Selinger 2001-2017
</metadata>
<g transform="translate(0.000000,1122.000000) scale(0.100000,-0.100000)" fill="#000000" stroke="none">
<path d="M3870 10230 c-267 -33 -507 -179 -637 -387 -73 -117 -104 -223 -111 -371 -9 -229 47 -433 189 -679 27 -47 49 -87 49 -89 0 -2 -42 26 -92 62 -124 88 -328 187 -448 218 -299 76 -561 15 -766 -177 -277 -259 -362 -687 -200 -1012 151 -304 448 -462 904 -482 l154 -6 -113 -54 c-522 -248 -748 -655 -607 -1093 44 -139 116 -250 233 -365 256 -251 613 -315 919 -165 106 52 195 120 293 223 80 85 193 244 234 330 13 26 27 47 32 47 4 0 6 -4 3 -9 -4 -5 -10 -66 -15 -136 -38 -545 179 -927 595 -1047 106 -31 341 -33 449 -4 326 88 555 313 620 610 30 137 11 385 -41 520 -5 12 0 16 18 16 26 0 88 -63 459 -470 189 -206 313 -340 587 -632 44 -47 39 -76 -25 -135 -47 -45 -73 -54 -73 -28 0 27 -69 154 -105 194 -19 21 -59 49 -88 62 -46 21 -66 24 -182 24 -120 -1 -137 -3 -222 -32 -109 -38 -241 -103 -365 -180 -198 -123 -348 -253 -514 -448 -111 -131 -194 -197 -339 -270 -75 -37 -101 -55 -88 -59 10 -3 70 -17 133 -31 63 -14 176 -45 250 -70 398 -129 691 -111 1010 63 335 183 479 366 515 655 6 44 10 50 61 84 30 20 64 51 75 70 l21 34 151 -158 c222 -233 455 -471 785 -804 287 -289 294 -297 299 -342 3 -25 2 -62 -1 -82 -6 -29 -11 -35 -24 -29 -106 45 -152 57 -222 58 -64 1 -83 -4 -129 -28 -184 -96 -316 -337 -396 -721 -41 -200 -51 -352 -36 -578 8 -108 10 -222 7 -254 -8 -65 -48 -221 -71 -276 -26 -63 -23 -63 96 14 52 33 148 88 214 121 230 116 389 233 491 362 191 241 314 681 260 932 -22 98 -81 224 -135 286 -45 50 -46 58 -29 142 l11 58 154 -154 c85 -84 284 -286 441 -448 334 -344 414 -420 777 -744 605 -539 1396 -1207 1527 -1290 l33 -21 -23 32 c-12 17 -81 87 -153 155 -115 108 -1670 1678 -2702 2727 l-357 363 33 37 c19 21 42 52 52 69 16 26 27 32 64 37 150 18 266 62 368 139 145 110 312 368 388 601 82 250 71 469 -40 805 -24 74 -55 186 -69 248 -21 102 -31 133 -39 121 -1 -2 -19 -40 -41 -84 -62 -129 -121 -209 -224 -303 -176 -160 -283 -266 -345 -342 -146 -180 -292 -442 -343 -615 -21 -72 -27 -112 -27 -195 -1 -134 21 -197 91 -262 41 -38 135 -92 195 -112 23 -7 13 -28 -43 -81 l-42 -40 -206 210 c-826 840 -1682 1726 -1682 1741 0 7 31 0 80 -17 135 -48 228 -62 364 -56 241 10 432 109 581 298 209 268 253 636 109 928 -41 82 -62 110 -143 191 -80 80 -112 104 -196 147 -179 92 -364 133 -600 133 l-130 0 125 61 c361 175 576 411 635 695 87 421 -222 883 -663 991 -96 23 -265 21 -363 -5 -259 -69 -478 -262 -670 -591 -21 -36 -39 -61 -39 -55 0 6 5 68 10 137 44 537 -191 939 -610 1046 -91 23 -232 32 -320 21z m4440 -4177 c-139 -604 -230 -890 -391 -1218 -71 -146 -181 -339 -200 -350 -23 -15 -16 4 30 75 68 105 160 282 226 435 89 204 175 479 277 882 97 388 129 484 58 176z m-1841 -1189 c-39 -47 -426 -245 -653 -333 -179 -70 -531 -168 -918 -256 -273 -61 -195 -37 202 65 411 104 597 161 793 241 161 67 359 165 477 238 99 62 121 72 99 45z m-1762 -630 c-3 -3 -12 -4 -19 -1 -8 3 -5 6 6 6 11 1 17 -2 13 -5z m3144 -800 c-78 -309 -202 -611 -368 -904 -159 -278 -407 -680 -420 -680 -3 0 1 10 9 23 36 55 225 369 328 546 217 373 368 731 441 1048 13 56 28 98 32 94 5 -5 -5 -62 -22 -127z"/>
</g>
</svg>