<svg id="Calque_1" data-name="Calque 1" xmlns="http://www.w3.org/2000/svg" viewBox="0 0 48 48"><defs><style>.cls-1{fill:#5b6870;}</style></defs><title>img-gouvernance</title><path class="cls-1" d="M24,5.33A18.67,18.67,0,1,0,42.67,24,18.69,18.69,0,0,0,24,5.33Zm0,36.14A17.47,17.47,0,1,1,41.47,24,17.49,17.49,0,0,1,24,41.47Z"/><path class="cls-1" d="M35.06,13.08,20.72,20.23a.63.63,0,0,0-.26.25l-7.1,13.06a.59.59,0,0,0,.09.7.6.6,0,0,0,.44.18.63.63,0,0,0,.26-.05l13.54-6.54a.58.58,0,0,0,.25-.24l7.9-13.67a.59.59,0,0,0-.08-.71A.61.61,0,0,0,35.06,13.08ZM21.13,21.77l5.28,5.35L15.3,32.48Zm6.17,4.54L22,20.94l11.81-5.89Z"/></svg>