<svg id="Calque_1" data-name="Calque 1" xmlns="http://www.w3.org/2000/svg" viewBox="0 0 48 48"><defs><style>.cls-1{fill:#5b6870;}</style></defs><title>img-agriculture</title><path class="cls-1" d="M25.5,30.92c2.68,0,4.49-.56,5.8-1.78s1.9-3.89,2.18-5.42l.1-.54a.94.94,0,0,0-.19-.79,1,1,0,0,0-.76-.39,8.83,8.83,0,0,0-6,1.81,7.54,7.54,0,0,0-2,2.8V22.25l.85,0c2.68,0,4.49-.56,5.8-1.78s1.9-3.9,2.18-5.42l.1-.54a1,1,0,0,0-.19-.8,1,1,0,0,0-.76-.38,8.8,8.8,0,0,0-6,1.8,7.54,7.54,0,0,0-2,2.8v-3.2A5.47,5.47,0,0,0,28.05,10c0-1.79-2-4.6-3.23-6.12a1,1,0,0,0-.77-.38h0a1,1,0,0,0-.76.37C22,5.48,19.88,8.36,19.88,10c0,2,1.33,3.77,3.57,4.73v3.39a7.87,7.87,0,0,0-2.08-3,8.81,8.81,0,0,0-6-1.8,1,1,0,0,0-.76.38,1,1,0,0,0-.19.8l.1.54c.28,1.52.74,4.08,2.18,5.42s3.12,1.78,5.8,1.78l.95,0v4.56a7.76,7.76,0,0,0-2.08-3,8.81,8.81,0,0,0-6-1.81,1,1,0,0,0-.76.39.94.94,0,0,0-.19.79l.1.54c.28,1.53.74,4.08,2.18,5.42s3.12,1.78,5.8,1.78c.3,0,.62,0,.95,0v4.57a7.8,7.8,0,0,0-2.08-3,8.81,8.81,0,0,0-6-1.8,1,1,0,0,0-.76.38,1,1,0,0,0-.19.8l.1.54c.28,1.52.74,4.07,2.18,5.41s3.12,1.79,5.8,1.79l.95,0v4.31a.6.6,0,0,0,1.2,0v-4.3l.85,0c2.68,0,4.49-.57,5.8-1.79s1.9-3.89,2.18-5.42l.1-.53a1,1,0,0,0-.19-.8,1,1,0,0,0-.76-.38,8.8,8.8,0,0,0-6,1.8,7.54,7.54,0,0,0-2,2.8V30.9C24.94,30.92,25.23,30.92,25.5,30.92Zm1.9-6.19a7.39,7.39,0,0,1,5-1.53l-.06.31c-.25,1.38-.67,3.68-1.82,4.75s-2.8,1.52-5.36,1.46A7.29,7.29,0,0,1,27.4,24.73Zm0-8.66a7.51,7.51,0,0,1,5-1.53l-.06.31c-.25,1.38-.67,3.69-1.82,4.76s-2.79,1.51-5.36,1.46A7.32,7.32,0,0,1,27.4,16.07Zm-9.88,3.54c-1.15-1.07-1.57-3.38-1.82-4.76l-.06-.31a7.46,7.46,0,0,1,5,1.53,7.32,7.32,0,0,1,2.28,5C20.31,21.12,18.65,20.66,17.52,19.61Zm0,8.65c-1.15-1.07-1.57-3.37-1.82-4.75l-.06-.31a7.44,7.44,0,0,1,5,1.53,7.29,7.29,0,0,1,2.28,5C20.31,29.77,18.65,29.32,17.52,28.26Zm0,8.66c-1.15-1.07-1.57-3.38-1.82-4.76l-.06-.31a7.46,7.46,0,0,1,5,1.53,7.31,7.31,0,0,1,2.28,5C20.31,38.43,18.65,38,17.52,36.92Zm9.88-3.54a7.51,7.51,0,0,1,5-1.53l-.06.31c-.25,1.38-.67,3.69-1.82,4.76s-2.79,1.51-5.36,1.45A7.31,7.31,0,0,1,27.4,33.38ZM21.08,10c0-.9,1.13-2.87,3-5.17,1.39,1.78,2.81,4,2.81,5.17A4.39,4.39,0,0,1,24,13.73C22.18,13,21.08,11.61,21.08,10Z"/></svg>