<?xml version="1.0" encoding="UTF-8" standalone="no"?>
<!DOCTYPE svg PUBLIC "-//W3C//DTD SVG 20010904//EN" "http://www.w3.org/TR/2001/REC-SVG-20010904/DTD/svg10.dtd">
<svg version="1.0" xmlns="http://www.w3.org/2000/svg" width="1280.000000pt" height="640.000000pt" viewBox="0 0 1280.000000 640.000000" preserveAspectRatio="xMidYMid meet">
<metadata>
Created by potrace 1.15, written by Peter Selinger 2001-2017
</metadata>
<g transform="translate(0.000000,640.000000) scale(0.100000,-0.100000)" fill="#000000" stroke="none">
<path d="M3465 6204 c-380 -13 -707 -38 -1165 -89 -326 -37 -983 -117 -988 -120 -2 -2 -36 -110 -76 -241 -41 -132 -151 -486 -244 -789 -94 -302 -230 -741 -302 -975 -72 -234 -208 -672 -302 -975 -93 -302 -215 -696 -270 -873 -55 -178 -102 -331 -105 -339 -5 -12 1 -13 32 -7 31 5 37 4 33 -7 -3 -8 -17 -53 -32 -102 -15 -48 -30 -95 -33 -104 -5 -14 -1 -15 25 -10 18 4 32 5 32 4 0 -1 -16 -51 -35 -111 -19 -61 -33 -111 -32 -113 2 -1 27 4 57 12 179 49 667 134 940 165 343 39 910 52 1256 29 548 -36 1109 -130 1854 -311 104 -25 383 -99 625 -167 99 -27 279 -77 400 -111 121 -33 247 -69 280 -80 33 -10 200 -60 370 -110 171 -51 369 -109 440 -131 72 -21 138 -39 147 -39 16 0 17 107 18 1668 0 917 -2 2033 -6 2480 l-7 813 -66 31 c-782 361 -1438 537 -2191 588 -172 11 -514 18 -655 14z"/>
<path d="M8930 6204 c-870 -34 -1600 -213 -2401 -587 l-97 -45 -6 -224 c-3 -122 -8 -1239 -12 -2482 l-6 -2259 29 6 c15 2 91 24 168 47 447 135 1466 425 1950 556 366 99 971 223 1355 278 644 93 1351 102 1968 26 253 -31 706 -113 880 -160 28 -7 32 -6 28 8 -34 109 -66 215 -66 218 0 1 13 -2 30 -7 16 -6 34 -9 39 -7 5 1 -6 53 -25 113 -19 61 -34 112 -34 114 0 2 16 0 36 -4 31 -5 36 -4 31 10 -4 8 -34 104 -68 213 -33 108 -100 325 -149 482 -49 157 -166 535 -260 840 -609 1969 -821 2654 -823 2656 -4 2 -932 114 -1067 129 -558 60 -1167 92 -1500 79z"/>
</g>
</svg>