<?xml version="1.0" encoding="iso-8859-1"?>
<!-- Generator: Adobe Illustrator 16.0.0, SVG Export Plug-In . SVG Version: 6.00 Build 0)  -->
<!DOCTYPE svg PUBLIC "-//W3C//DTD SVG 1.1//EN" "http://www.w3.org/Graphics/SVG/1.1/DTD/svg11.dtd">
<svg version="1.1" id="Capa_1" xmlns="http://www.w3.org/2000/svg" xmlns:xlink="http://www.w3.org/1999/xlink" x="0px" y="0px"
	 width="122.426px" height="122.426px" viewBox="0 0 122.426 122.426" style="enable-background:new 0 0 122.426 122.426;"
	 xml:space="preserve">
<g>
	<g>
		<circle cx="42.829" cy="13.016" r="13.016"/>
		<path d="M80.543,28.959c1.657-2.243,1.185-5.41-1.061-7.067c-2.243-1.659-5.408-1.187-7.066,1.059
			c-4.75,6.426-8.017,9.436-10.921,10.062c-1.061,0.225-2.271,0.182-3.684-0.077c-1.684-3.575-5.638-5.677-9.213-6.171
			c0,0-1.407-0.269-2.854-0.087c-1.384,0.172-2.897,0.653-2.897,0.653l-0.036,0.011c-4.246,1.515-8.52,5.542-7.971,10.867
			l2.94,28.577c0.332,3.209,2.248,5.609,4.807,7.104l-0.024,41.639c-0.001,3.81,3.081,6.895,6.888,6.896h0.004
			c3.804,0,6.887-3.081,6.889-6.886l0.025-41.813c3.168-1.906,5.608-5.168,5.174-9.383l-2.18-21.166
			c0.287,0.011,0.58,0.034,0.864,0.034C67.127,43.212,72.815,39.412,80.543,28.959z"/>
		<circle cx="71.749" cy="6.72" r="6.719"/>
		<path d="M87.647,33.498c0.113-0.51,0.37-1.099,1.35-1.665c0.072-0.008,0.157-0.035,0.327-0.139
			c2.554-1.511,4.29-4.856,2.646-7.632L84.408,11.3C83,8.922,77.933,8.675,73.256,16.171c-0.506,0.541-0.994,0.933-1.504,1.161
			c-1.396,0.635-1.379,0.848-5.326-0.359c-1.381-0.419-2.84,0.357-3.258,1.734c-0.42,1.379,0.354,2.836,1.731,3.257
			c2.703,0.828,4.481,1.189,5.854,1.18c0.248-0.328,0.502-0.666,0.758-1.012c1.207-1.636,3.143-2.611,5.176-2.611
			c1.384,0,2.704,0.437,3.818,1.263c2.852,2.107,3.457,6.143,1.35,8.992c-0.286,0.388-0.564,0.749-0.848,1.12
			c-0.121,0.35-0.23,0.707-0.312,1.081c-1.422,6.498,3.958,13.759,4.576,14.564c1.187,1.545,3.384,1.851,4.942,0.695
			c0.015-0.012,0.031-0.021,0.045-0.033c1.561-1.195,1.855-3.429,0.662-4.987C89.658,40.567,87.083,36.084,87.647,33.498z"/>
	</g>
</g>
<g>
</g>
<g>
</g>
<g>
</g>
<g>
</g>
<g>
</g>
<g>
</g>
<g>
</g>
<g>
</g>
<g>
</g>
<g>
</g>
<g>
</g>
<g>
</g>
<g>
</g>
<g>
</g>
<g>
</g>
</svg>
